<?xml version="1.0" standalone="no"?>
<!DOCTYPE svg PUBLIC "-//W3C//DTD SVG 20010904//EN"
 "http://www.w3.org/TR/2001/REC-SVG-20010904/DTD/svg10.dtd">
<svg version="1.0" xmlns="http://www.w3.org/2000/svg"
 width="750.000000pt" height="750.000000pt" viewBox="0 0 750.000000 750.000000"
 preserveAspectRatio="xMidYMid meet">
<metadata>
Created by potrace 1.11, written by Peter Selinger 2001-2013
</metadata>
<g transform="translate(0.000000,750.000000) scale(0.100000,-0.100000)"
fill="#000000" stroke="none">
<path d="M3580 7384 c-14 -2 -79 -6 -145 -10 l-120 -6 -67 -70 c-38 -38 -73
-66 -78 -63 -6 4 -7 -1 -3 -11 5 -13 2 -15 -18 -9 -16 4 -19 3 -11 -3 10 -7 5
-18 -24 -48 -24 -24 -39 -33 -42 -25 -3 9 -11 6 -28 -10 -13 -12 -24 -20 -24
-17 0 5 70 77 136 140 21 21 55 53 74 73 l35 35 -30 -5 c-528 -88 -888 -211
-1290 -440 -198 -112 -495 -320 -495 -346 0 -5 -5 -9 -11 -9 -20 0 -161 -125
-279 -247 -141 -144 -191 -203 -184 -215 3 -5 -4 -12 -15 -15 -20 -5 -211
-246 -211 -265 0 -4 26 -5 58 -3 171 12 225 16 307 20 50 3 171 9 270 15 338
18 433 21 440 10 3 -5 3 -10 -2 -10 -4 0 -98 -7 -208 -15 -110 -8 -285 -18
-390 -20 -104 -3 -235 -12 -290 -20 -55 -7 -128 -17 -163 -20 -46 -5 -65 -12
-72 -26 -8 -14 -7 -18 2 -15 7 3 51 7 98 10 104 7 81 -7 -41 -24 -59 -9 -89
-17 -95 -29 -6 -9 -21 -34 -34 -55 -22 -36 -22 -39 -4 -32 18 7 157 39 309 71
39 8 144 26 235 40 317 49 425 66 480 76 30 6 69 13 85 15 17 3 50 9 75 14 25
5 59 12 77 15 17 3 52 14 78 25 51 22 85 26 85 10 0 -15 -38 -27 -165 -55 -60
-14 -139 -32 -175 -40 -36 -8 -204 -37 -375 -65 -355 -58 -448 -75 -525 -95
-30 -8 -94 -24 -141 -36 -62 -15 -89 -27 -99 -42 -7 -12 -48 -92 -90 -177
-129 -258 -218 -510 -281 -795 -40 -181 -42 -171 33 -167 34 2 89 -1 122 -7
353 -65 571 -93 739 -95 116 -2 191 2 417 20 53 4 207 41 262 62 14 6 56 39
92 73 82 77 159 135 211 159 33 16 36 16 17 2 -59 -43 -159 -129 -182 -156
-14 -17 -36 -39 -49 -51 -12 -11 -34 -30 -47 -42 -13 -12 -41 -25 -62 -29 -20
-4 -46 -11 -57 -17 -21 -12 -80 -23 -185 -35 -36 -4 -70 -10 -75 -14 -9 -6
-49 -9 -235 -23 -47 -3 -254 14 -310 26 -25 5 -99 16 -165 25 -66 8 -151 22
-190 31 -215 47 -375 65 -375 43 0 -5 25 -10 56 -10 49 0 131 -19 369 -84 323
-88 547 -133 692 -137 56 -2 105 -1 108 3 4 4 12 5 19 2 16 -6 158 24 170 36
6 6 20 10 33 10 13 0 23 3 23 8 0 12 77 32 125 32 40 0 47 -3 57 -27 6 -16 11
-58 10 -96 0 -37 3 -65 8 -62 4 2 26 37 50 77 23 40 45 78 48 84 4 6 24 35 45
65 41 60 46 75 18 58 -20 -13 -51 -6 -51 12 0 8 4 8 15 -1 8 -7 22 -10 30 -6
8 3 17 4 19 3 2 -1 13 9 23 23 25 33 143 225 143 233 0 4 -8 4 -17 1 -15 -5
-15 -3 1 10 11 9 23 16 27 16 3 0 69 123 144 273 135 266 220 422 275 502 15
22 52 85 82 141 31 55 113 194 183 310 153 249 239 397 284 481 71 133 138
182 247 183 76 0 147 -33 194 -92 19 -23 63 -100 98 -172 36 -72 120 -234 187
-361 67 -126 157 -299 199 -382 42 -84 78 -153 81 -153 10 0 85 43 91 51 3 5
14 9 25 9 10 0 19 4 19 9 0 5 14 14 30 21 17 7 30 16 30 21 0 4 10 11 23 14
43 13 170 80 174 92 3 7 11 13 19 13 8 0 14 7 14 15 0 8 3 14 8 13 4 -2 18 5
32 15 13 9 21 17 16 17 -5 0 7 13 25 30 19 16 40 30 46 30 13 0 136 77 166
104 9 9 19 16 22 16 2 0 18 12 34 28 16 15 50 44 75 66 25 21 43 42 41 46 -4
7 8 16 28 19 4 0 19 12 35 25 15 14 37 33 50 44 12 11 22 23 22 28 0 11 62 54
77 54 6 0 16 13 23 29 13 33 28 49 99 110 28 25 51 50 51 57 0 7 4 14 10 16 5
2 38 29 72 60 35 32 95 84 135 117 39 32 69 62 66 65 -4 3 -1 6 6 6 7 0 32 18
55 41 24 22 52 46 61 53 10 7 15 18 12 24 -9 13 -209 145 -302 199 -176 102
-434 220 -625 285 -145 50 -287 87 -312 81 -30 -6 -70 -25 -86 -40 -7 -7 -25
-16 -40 -20 -15 -3 -38 -14 -51 -25 -13 -10 -29 -18 -36 -18 -6 0 -59 -24
-117 -54 -58 -30 -123 -59 -144 -66 -106 -34 -538 -253 -674 -341 -30 -19
-113 -71 -185 -113 -71 -43 -146 -91 -166 -107 -20 -16 -41 -29 -46 -29 -5 0
-36 -20 -70 -44 -33 -24 -78 -53 -99 -64 -21 -11 -49 -30 -61 -41 -12 -12 -24
-21 -27 -21 -3 0 -46 -28 -96 -62 -50 -35 -99 -68 -108 -73 -9 -6 -39 -23 -67
-39 -27 -16 -82 -49 -121 -72 -60 -36 -309 -164 -319 -164 -1 0 -5 9 -8 21 -4
16 2 25 24 37 16 10 29 22 29 29 0 15 181 187 251 239 16 12 43 35 59 53 17
17 34 31 38 31 5 0 29 18 53 40 73 66 89 80 97 80 4 0 24 15 44 34 20 19 65
56 100 83 35 26 70 55 78 63 30 29 108 90 116 90 4 0 14 7 23 15 48 45 107 94
114 95 4 0 7 7 7 16 0 8 4 13 9 10 13 -8 34 21 25 35 -4 8 -3 9 4 5 7 -4 12
-2 12 4 0 6 5 8 10 5 6 -3 10 -2 10 3 0 5 14 15 30 22 17 7 30 19 30 26 0 8 6
14 13 14 6 0 20 14 29 30 10 18 25 30 37 30 11 0 25 9 31 20 6 11 16 20 23 20
15 0 122 108 130 130 3 9 6 10 6 3 1 -17 79 37 86 60 4 9 12 17 18 17 18 0 59
48 52 60 -3 5 0 10 8 10 7 0 38 18 67 40 l54 40 -100 -1 c-54 -1 -110 -3 -124
-5z m-595 -313 c-3 -6 -11 -11 -17 -11 -6 0 -6 6 2 15 14 17 26 13 15 -4z
m-152 -178 c-10 -16 -31 -39 -48 -53 -16 -14 -41 -38 -55 -53 -14 -16 -45 -51
-70 -77 -25 -26 -65 -71 -90 -100 -76 -89 -114 -127 -105 -105 4 11 10 29 13
40 7 25 27 46 36 38 3 -4 6 -1 6 5 0 6 8 18 18 28 9 10 17 21 17 25 0 15 96
119 207 226 27 25 65 50 81 52 4 1 -1 -11 -10 -26z m-513 -80 c0 -5 -7 -17
-15 -27 -8 -11 -13 -27 -10 -37 12 -36 -191 -154 -296 -172 -41 -7 -101 4
-106 20 -3 7 24 20 65 32 38 12 75 28 82 36 7 8 17 15 22 15 5 0 37 23 71 50
72 58 188 109 187 83z m-645 -314 c40 -20 93 -81 75 -87 -5 -2 -23 12 -40 31
-17 19 -50 44 -75 56 -25 12 -45 23 -45 25 0 8 45 -6 85 -25z m91 -21 c3 -5 4
-12 1 -15 -7 -6 -77 46 -77 58 0 9 67 -28 76 -43z m675 -1 c-1 -12 -15 -9 -19
4 -3 6 1 10 8 8 6 -3 11 -8 11 -12z m-571 -52 c23 -21 85 -45 116 -45 42 0 22
-25 -22 -28 -33 -2 -49 4 -84 30 -24 18 -55 40 -68 48 -14 9 -28 22 -30 28 -5
16 63 -10 88 -33z m-140 -90 c-24 -38 -41 -46 -33 -15 3 11 9 20 14 20 5 0 9
6 9 13 0 7 6 19 12 25 22 22 21 -6 -2 -43z m385 -2 c15 -31 16 -44 4 -117 -7
-44 -16 -85 -21 -90 -10 -12 -10 42 1 108 8 48 7 51 -25 84 -19 19 -34 38 -34
42 0 4 13 7 29 8 24 0 32 -6 46 -35z m-71 -56 c21 -15 26 -99 7 -105 -6 -2 -9
-7 -7 -11 3 -4 -1 -26 -9 -48 -8 -23 -15 -74 -16 -114 -1 -55 -6 -77 -18 -86
-19 -15 -51 -17 -51 -3 0 6 -7 10 -15 10 -8 0 -24 9 -35 20 -11 11 -29 20 -40
20 -11 0 -19 6 -17 13 1 7 -7 11 -20 10 -13 -2 -23 2 -23 8 0 5 5 7 10 4 17
-10 11 11 -7 28 -23 19 -154 87 -170 87 -7 0 -13 4 -13 8 0 5 -38 8 -85 6 -47
-1 -87 1 -90 5 -5 9 38 14 128 13 67 0 79 10 33 28 -18 8 -16 9 14 11 54 2 73
-1 99 -19 13 -9 34 -24 47 -33 23 -15 55 -54 91 -111 27 -43 47 -37 28 8 -8
20 -15 52 -15 71 l0 36 42 -7 c23 -4 44 -9 47 -11 2 -3 10 -26 17 -52 l13 -48
0 49 c1 67 -46 145 -89 146 -8 0 -28 7 -44 15 -15 8 -34 15 -42 15 -7 0 -11 6
-8 14 3 9 34 17 92 23 125 14 126 14 146 0z m-376 -37 c3 -17 0 -21 -12 -17
-9 4 -16 2 -16 -3 0 -6 -7 -10 -15 -10 -8 0 -15 7 -15 15 0 8 7 15 15 15 8 0
15 7 15 16 0 24 25 11 28 -16z m-111 -66 c-3 -3 -12 -4 -19 -1 -8 3 -5 6 6 6
11 1 17 -2 13 -5z m-442 -14 c3 -5 1 -10 -4 -10 -6 0 -11 5 -11 10 0 6 2 10 4
10 3 0 8 -4 11 -10z m951 -58 c-12 -11 -18 7 -10 30 l8 23 4 -23 c2 -13 1 -26
-2 -30z m-651 15 c-21 -16 -17 -20 60 -54 63 -28 47 -29 -35 -3 -34 11 -74 20
-89 20 -32 1 -71 27 -50 34 8 2 21 7 29 9 8 3 35 6 59 6 40 1 43 0 26 -12z
m279 -53 c36 -15 66 -33 66 -40 0 -8 -12 -6 -37 7 -21 10 -56 21 -78 24 l-40
6 33 -31 c41 -38 36 -48 -12 -25 -37 18 -86 68 -86 87 0 17 80 2 154 -28z
m426 -15 c0 -24 -35 -2 -38 24 l-3 28 20 -20 c12 -12 21 -26 21 -32z m-47 -6
c4 -18 3 -33 -2 -33 -10 0 -21 34 -21 65 0 28 16 6 23 -32z m-1003 27 c0 -5
-2 -10 -4 -10 -3 0 -8 5 -11 10 -3 6 -1 10 4 10 6 0 11 -4 11 -10z m166 -290
c13 0 24 -4 24 -9 0 -9 -80 -27 -164 -36 -27 -3 -53 -8 -58 -11 -12 -7 -241
-35 -246 -29 -6 6 6 10 82 29 33 8 63 13 67 11 3 -3 35 5 70 17 64 22 162 38
187 31 8 -1 25 -3 38 -3z m944 -1130 c-8 -5 -19 -10 -25 -10 -5 0 -3 5 5 10 8
5 20 10 25 10 6 0 3 -5 -5 -10z m-120 -86 c0 -3 -22 -29 -48 -57 -55 -59 -95
-143 -90 -190 2 -26 -1 -32 -17 -32 -16 0 -21 8 -23 38 -2 26 1 37 9 35 8 -2
13 10 13 33 1 40 31 80 106 142 47 39 50 41 50 31z m-39 -82 c-5 -10 -17 -25
-26 -32 -13 -11 -14 -10 -8 6 9 23 25 43 36 44 4 0 3 -8 -2 -18z"/>
<path d="M2045 6634 c-19 -16 -19 -16 5 -9 31 9 50 25 30 25 -8 0 -24 -8 -35
-16z"/>
<path d="M1690 6126 c0 -2 7 -7 16 -10 8 -3 12 -2 9 4 -6 10 -25 14 -25 6z"/>
<path d="M1914 6065 c-4 -8 -1 -22 6 -29 9 -11 9 -20 0 -36 -18 -35 -2 -35 50
-2 2 2 -2 7 -9 12 -8 4 -15 19 -17 32 -1 12 -3 26 -3 31 -2 13 -21 7 -27 -8z"/>
<path d="M1987 5990 c-3 -11 -1 -20 4 -20 5 0 9 9 9 20 0 11 -2 20 -4 20 -2 0
-6 -9 -9 -20z"/>
<path d="M1940 5960 c0 -5 5 -10 11 -10 5 0 7 5 4 10 -3 6 -8 10 -11 10 -2 0
-4 -4 -4 -10z"/>
<path d="M3920 7367 c-14 -6 -32 -19 -40 -28 -8 -8 -27 -24 -42 -33 -15 -10
-25 -22 -22 -27 3 -6 -5 -7 -19 -4 -19 5 -38 -4 -88 -44 -94 -75 -126 -102
-171 -143 -22 -20 -58 -52 -80 -70 -23 -18 -64 -53 -93 -78 -29 -25 -69 -58
-90 -75 -20 -16 -49 -40 -64 -53 -14 -13 -38 -30 -53 -40 -16 -9 -28 -20 -28
-25 0 -12 -19 -29 -62 -56 -21 -12 -38 -26 -38 -29 0 -4 -18 -18 -40 -32 -22
-13 -40 -28 -40 -32 0 -4 -4 -8 -10 -8 -5 0 -21 -11 -36 -24 -53 -48 -175
-143 -219 -170 -16 -11 -40 -30 -52 -43 -12 -12 -25 -23 -28 -23 -9 0 -174
-144 -170 -148 2 -3 83 56 181 129 97 74 186 141 198 149 54 38 219 163 265
203 8 7 34 26 56 42 23 17 79 58 124 92 45 35 97 70 116 79 18 8 36 22 39 30
3 8 11 14 17 14 6 0 22 11 35 25 13 14 26 25 29 25 8 0 134 94 160 119 11 10
30 22 41 25 12 4 34 18 48 31 14 13 26 22 26 20 0 -8 145 81 195 120 11 9 48
30 83 48 l63 32 -43 7 c-64 10 -120 8 -148 -5z m-158 -129 c-7 -7 -12 -8 -12
-2 0 14 12 26 19 19 2 -3 -1 -11 -7 -17z"/>
<path d="M4310 7284 c-46 -32 -72 -43 -88 -39 -16 4 -24 0 -29 -12 -10 -26
-33 -40 -74 -47 -20 -3 -65 -22 -99 -41 -34 -19 -65 -35 -69 -35 -5 0 -38 -16
-74 -35 -36 -19 -73 -35 -81 -35 -9 0 -16 -4 -16 -8 0 -5 -11 -14 -25 -20 -14
-7 -31 -17 -38 -22 -19 -16 -239 -160 -246 -160 -3 -1 -40 -25 -81 -55 -41
-30 -129 -91 -195 -136 -66 -44 -129 -89 -140 -99 -67 -59 -180 -124 -201
-116 -8 3 -27 -2 -42 -11 -27 -18 -103 -74 -112 -83 -3 -3 -30 -23 -60 -44
-30 -22 -57 -43 -58 -48 -2 -4 -9 -8 -17 -8 -7 0 -18 -6 -24 -14 -7 -8 -50
-40 -96 -71 -149 -101 -175 -153 -31 -63 46 29 108 67 136 83 29 17 57 35 63
40 7 6 62 44 122 84 61 41 119 81 130 90 11 10 37 26 58 37 21 10 46 26 55 34
9 8 30 22 47 30 16 8 61 38 100 65 39 28 83 56 97 64 15 8 36 21 46 30 9 9 35
25 57 36 22 11 46 26 54 33 20 19 110 76 185 116 36 20 84 47 106 61 22 14 42
25 44 25 3 0 52 23 110 50 58 28 110 50 115 50 6 0 11 5 11 10 0 6 7 10 15 10
8 0 52 18 96 40 45 22 88 40 97 40 8 0 38 15 66 34 28 18 76 42 106 52 30 11
64 27 74 37 11 9 30 17 42 17 29 0 83 47 63 54 -21 7 -119 26 -127 25 -4 -1
-36 -21 -72 -45z"/>
<path d="M3090 7170 c-9 -6 -10 -10 -3 -10 6 0 15 5 18 10 8 12 4 12 -15 0z"/>
<path d="M5907 6594 c-11 -14 -30 -30 -43 -36 -16 -8 -23 -17 -19 -27 3 -8 3
-12 -1 -9 -11 11 -56 -17 -108 -66 -26 -25 -54 -46 -62 -46 -8 0 -14 -4 -14
-8 0 -5 -18 -26 -40 -48 -22 -21 -40 -45 -40 -52 0 -7 -4 -11 -9 -8 -12 8 -61
-40 -61 -59 0 -9 -4 -14 -9 -11 -8 6 -65 -59 -59 -68 2 -2 -14 -20 -34 -40
-20 -20 -34 -36 -30 -36 3 0 -3 -7 -15 -15 -12 -9 -20 -22 -17 -29 3 -8 0 -17
-5 -21 -6 -3 -9 -11 -6 -16 5 -8 -16 -14 -37 -10 -5 0 -8 -20 -8 -46 0 -25 -3
-43 -7 -40 -3 4 -13 -2 -21 -14 -8 -11 -20 -18 -27 -15 -8 3 -19 -2 -25 -9
-10 -12 -8 -16 8 -22 18 -7 19 -10 7 -26 -7 -10 -17 -17 -21 -16 -5 1 -20 1
-34 0 -18 -1 -21 -4 -12 -10 22 -14 10 -46 -16 -44 -13 2 -25 -4 -28 -12 -4
-8 -11 -15 -16 -15 -6 0 -7 8 -3 18 4 11 -1 9 -17 -8 -13 -13 -22 -29 -20 -34
2 -5 -4 -4 -12 4 -14 10 -16 10 -16 -6 0 -14 -8 -20 -34 -21 -39 -3 -84 -24
-79 -38 4 -14 -12 -36 -28 -39 -32 -5 -59 -18 -59 -27 0 -6 -8 -8 -17 -5 -24
8 -47 -9 -40 -27 4 -11 1 -14 -9 -10 -8 3 -14 -1 -14 -10 0 -14 -33 -31 -57
-28 -7 1 -13 -4 -13 -10 0 -7 -3 -10 -6 -6 -3 3 -16 -5 -29 -19 -16 -17 -33
-24 -59 -24 -30 0 -36 -4 -36 -21 0 -18 -4 -20 -30 -14 -18 4 -30 3 -30 -4 0
-5 -12 -11 -27 -13 -17 -2 -27 -8 -25 -16 1 -8 -2 -11 -8 -7 -5 3 -20 -3 -32
-15 -12 -11 -33 -20 -47 -19 -31 1 -51 -4 -69 -14 -6 -5 -32 -5 -57 -1 -25 3
-45 3 -45 0 0 -4 18 -42 40 -86 l40 -80 38 16 c20 9 46 17 57 19 11 2 54 9 95
16 48 8 169 12 335 11 274 -1 339 -4 367 -16 9 -4 22 -5 27 -2 19 12 288 -104
311 -134 3 -4 28 -18 55 -32 28 -14 68 -35 90 -46 22 -11 94 -46 160 -77 66
-31 132 -63 147 -71 15 -8 53 -24 85 -35 31 -10 68 -26 81 -35 13 -9 45 -22
72 -30 26 -8 61 -21 77 -29 15 -8 40 -15 55 -15 15 0 29 -4 32 -9 3 -4 27 -14
53 -21 27 -7 66 -18 88 -25 69 -23 235 -58 242 -52 9 10 2 15 -32 18 -16 2
-32 7 -36 11 -3 4 -49 21 -103 37 -55 17 -103 34 -109 40 -5 5 -16 7 -23 4 -8
-3 -14 0 -14 7 0 8 -9 10 -24 6 -14 -3 -28 -1 -31 4 -8 13 -81 51 -87 45 -2
-2 -44 16 -93 40 -49 25 -95 45 -102 45 -7 0 -13 4 -13 10 0 5 -18 14 -40 20
-28 8 -44 18 -50 35 -6 17 -14 23 -25 19 -9 -4 -23 0 -33 7 -32 26 -91 52
-106 46 -8 -3 -17 -1 -20 6 -3 9 -8 8 -15 -3 -7 -10 -11 -11 -11 -2 0 6 -8 12
-17 12 -15 0 -16 2 -3 10 12 8 12 10 -2 15 -10 4 -22 4 -28 0 -5 -3 -10 -2
-10 3 0 13 -86 72 -105 72 -9 0 -19 9 -22 20 -5 18 -21 25 -45 21 -5 0 -8 6
-8 15 0 9 -5 12 -12 8 -7 -4 -8 -3 -4 5 4 6 2 19 -5 27 -13 16 -58 38 -70 36
-4 -1 -4 8 -1 20 4 16 2 19 -8 13 -10 -6 -12 -4 -7 8 3 10 2 17 -4 17 -10 0
-32 45 -34 70 0 9 -8 14 -20 11 -19 -3 -19 -2 -2 16 9 11 14 22 11 25 -3 4 -8
23 -10 45 -3 21 -7 55 -9 76 -3 21 -2 36 3 33 4 -2 16 2 26 10 19 13 19 14 -5
35 -24 21 -24 21 -1 15 13 -5 22 -3 22 3 0 6 8 11 18 11 10 0 23 5 30 12 9 9
12 9 12 -1 0 -7 4 -9 10 -6 5 3 30 -3 54 -15 25 -11 54 -20 66 -20 14 0 19 -4
14 -12 -5 -8 -2 -9 12 -3 16 6 137 34 229 51 118 23 752 42 784 24 11 -6 22
-4 33 7 12 10 18 12 18 4 0 -7 15 -11 38 -10 20 1 50 -2 65 -5 59 -14 59 4 -3
99 -58 89 -59 89 -122 108 -94 29 -285 46 -518 48 -30 1 -67 7 -82 15 -15 8
-30 14 -33 14 -21 -1 -24 2 -18 16 5 13 2 15 -15 10 -11 -4 -23 -2 -26 3 -4 6
-13 8 -21 4 -8 -3 -15 0 -15 6 0 7 7 14 16 18 8 3 13 12 10 19 -3 7 -1 16 5
20 7 4 6 10 -1 19 -8 10 -5 18 12 31 13 11 37 37 53 59 16 22 36 47 45 56 8 9
34 37 58 63 24 25 52 46 63 46 10 0 19 5 19 10 0 6 7 10 16 10 9 0 12 5 8 12
-4 6 2 17 12 25 18 14 16 17 -36 65 -131 119 -232 198 -253 198 -12 0 -30 -12
-40 -26z m-247 -544 c0 -5 -4 -10 -10 -10 -5 0 -10 5 -10 10 0 6 5 10 10 10 6
0 10 -4 10 -10z m10 -50 c0 -5 9 -10 20 -10 11 0 20 -7 20 -15 0 -8 7 -15 15
-15 9 0 18 -7 21 -15 4 -8 17 -15 30 -15 15 0 42 -16 68 -40 24 -23 47 -37 50
-31 10 16 47 0 56 -25 5 -13 15 -22 22 -19 7 3 47 0 88 -6 41 -5 93 -10 116
-9 22 0 54 -6 70 -15 l29 -15 -45 -2 c-25 0 -56 -2 -70 -3 -14 -2 -88 -5 -164
-8 -131 -6 -143 -5 -180 16 -23 12 -42 25 -44 30 -2 4 -9 7 -15 7 -7 0 -37 13
-67 28 -64 32 -74 59 -52 130 13 38 32 57 32 32z"/>
<path d="M6352 6195 c-19 -13 -42 -32 -52 -42 -10 -10 -32 -29 -49 -42 -17
-13 -28 -27 -25 -32 3 -5 10 -7 15 -4 5 4 9 1 9 -4 0 -6 3 -10 8 -9 15 3 42
-15 42 -28 0 -10 15 -14 55 -14 43 0 55 -3 55 -16 0 -8 5 -12 10 -9 6 4 17 2
24 -4 8 -6 36 -13 62 -15 27 -2 61 -6 77 -9 15 -2 27 -2 27 1 0 15 -206 252
-219 252 -3 -1 -21 -12 -39 -25z"/>
<path d="M2400 6165 c-11 -13 -10 -14 4 -9 9 3 16 10 16 15 0 13 -6 11 -20 -6z"/>
<path d="M2355 6130 c-3 -6 1 -7 9 -4 18 7 21 14 7 14 -6 0 -13 -4 -16 -10z"/>
<path d="M3321 6004 c-35 -60 -98 -163 -141 -229 -43 -66 -104 -167 -135 -225
-31 -58 -81 -145 -110 -195 -28 -49 -87 -157 -130 -240 -43 -82 -129 -238
-190 -345 -62 -107 -194 -343 -295 -525 -100 -181 -244 -436 -320 -565 -76
-129 -169 -298 -208 -375 -39 -77 -114 -216 -166 -308 -52 -93 -120 -226 -151
-295 -31 -70 -99 -209 -151 -310 l-95 -182 258 -3 c538 -5 548 -4 545 18 -2
10 -17 37 -33 60 -16 22 -44 63 -62 90 -59 88 -72 108 -87 131 -8 13 -27 40
-41 61 -57 83 -121 185 -155 252 -32 61 -36 74 -28 103 10 33 10 33 70 -87 33
-66 82 -154 108 -195 27 -41 58 -91 70 -110 13 -19 35 -54 49 -77 15 -24 27
-46 27 -50 0 -5 19 -35 41 -68 23 -32 48 -74 56 -92 l13 -33 105 0 c69 0 106
4 111 12 4 6 2 14 -4 16 -7 2 -12 8 -12 14 0 6 7 7 16 4 21 -8 51 21 36 36 -8
8 -6 18 6 36 18 28 20 36 28 107 7 66 11 78 28 72 7 -3 19 3 26 13 13 18 14
18 26 2 12 -16 13 -16 19 1 5 11 18 17 36 17 16 0 29 5 29 11 0 6 9 8 20 4 25
-8 40 22 19 37 -11 8 -10 9 3 4 10 -3 20 -1 23 5 4 5 12 9 18 8 24 -3 38 1 33
9 -3 5 4 25 14 45 18 34 19 37 2 46 -14 8 -9 11 23 12 38 1 38 2 10 8 l-30 7
28 7 c15 4 27 11 27 15 -2 33 -110 83 -135 62 -22 -18 -60 -2 -63 26 -1 13 3
24 8 24 18 0 10 18 -10 23 -11 3 -20 2 -20 -2 0 -4 -7 -16 -15 -27 -13 -17
-14 -11 -11 61 2 65 -10 166 -28 230 -2 6 -6 28 -11 49 -12 59 -80 184 -199
364 -64 97 -82 119 -88 105 -7 -16 -7 -16 -5 2 2 11 -2 31 -8 45 -40 84 -17
110 27 31 15 -26 34 -54 43 -61 8 -7 15 -18 15 -25 0 -6 11 -25 25 -41 14 -16
25 -34 25 -41 0 -7 6 -16 13 -20 22 -13 47 -71 33 -77 -7 -3 -7 -5 2 -5 6 -1
12 -8 12 -16 0 -8 5 -15 10 -15 6 0 10 -7 10 -15 0 -8 5 -15 10 -15 6 0 10 -6
10 -13 0 -8 11 -24 25 -37 14 -13 25 -27 25 -32 0 -20 63 -98 79 -98 6 0 11
-6 11 -12 1 -17 40 -61 73 -83 14 -9 29 -25 32 -36 4 -11 23 -24 46 -30 21 -7
39 -16 39 -21 0 -4 9 -8 20 -8 10 0 23 -7 27 -15 5 -8 21 -16 35 -17 15 -1 26
-5 25 -8 -4 -10 43 -50 58 -50 8 0 15 -7 15 -15 0 -16 54 -48 64 -37 4 3 4 -1
1 -10 -6 -16 49 -68 73 -68 7 0 12 -7 12 -15 0 -8 3 -15 8 -15 14 -1 79 -65
75 -75 -2 -6 6 -11 17 -12 31 -3 80 -42 80 -65 0 -14 5 -18 15 -14 10 4 15 -1
15 -14 0 -18 5 -19 53 -14 28 4 108 8 177 10 69 3 161 9 204 14 44 6 103 10
133 10 l54 0 -61 113 c-34 61 -107 204 -162 316 l-101 203 -90 77 c-100 85
-150 121 -168 121 -6 0 -66 -44 -133 -98 -154 -125 -172 -137 -222 -152 -82
-24 -164 31 -164 111 0 40 39 163 100 313 64 159 38 222 -125 304 -27 14 -62
33 -76 43 -14 10 -45 25 -70 35 -24 9 -51 23 -60 31 -9 7 -38 21 -65 31 -58
21 -134 64 -134 75 0 11 55 -1 105 -23 22 -10 51 -21 65 -25 36 -11 128 -62
185 -103 l50 -35 -48 51 c-26 28 -50 64 -53 79 -5 22 -19 34 -72 61 -37 18
-78 32 -92 33 -14 0 -33 6 -42 13 -19 14 -25 32 -8 21 6 -4 16 -2 23 3 14 12
107 -9 143 -33 29 -19 48 -19 64 -1 10 13 3 18 -44 31 -57 17 -74 35 -33 35
12 0 49 -7 81 -15 51 -13 79 -14 243 -1 102 8 186 16 187 18 14 18 65 142 61
148 -3 4 -14 10 -26 13 -15 4 -19 2 -15 -8 6 -18 -86 -10 -128 10 -16 8 -39
15 -52 15 -13 0 -26 5 -30 11 -3 6 -17 9 -31 6 -13 -2 -30 2 -39 10 -8 8 -14
10 -14 4 0 -15 -30 -14 -35 2 -3 6 -18 13 -33 14 -15 1 -50 9 -76 18 -26 9
-54 14 -62 11 -8 -3 -14 -1 -14 5 0 5 8 13 18 16 9 4 20 11 24 17 8 12 22 14
122 20 37 2 73 9 79 15 6 6 28 11 48 11 21 0 41 5 44 10 3 6 13 10 21 10 12 0
12 -4 4 -20 -8 -15 -21 -20 -50 -20 -21 0 -42 -4 -45 -10 -3 -5 -18 -10 -33
-10 -18 0 -23 -3 -15 -11 11 -11 63 -2 63 12 0 5 18 9 40 9 23 0 52 7 66 16
34 23 94 29 94 10 0 -8 -15 -17 -36 -20 -26 -5 -34 -11 -30 -22 3 -9 6 -18 6
-20 0 -2 14 -4 30 -4 24 0 30 4 28 18 -2 10 2 16 11 14 8 -2 11 3 8 12 -9 24
10 29 25 7 9 -12 28 -21 53 -23 25 -2 39 -8 38 -15 -5 -21 15 -15 22 7 4 11
22 40 40 64 31 41 32 45 16 60 -10 9 -29 14 -49 11 -18 -2 -43 0 -55 4 l-22 9
25 10 c14 5 31 7 38 4 15 -5 42 -9 86 -11 21 -1 27 -5 22 -17 -5 -12 -1 -14
17 -8 53 16 53 16 39 6 -11 -7 -11 -10 1 -15 20 -7 77 -110 128 -229 49 -114
86 -187 107 -210 13 -16 35 -18 171 -18 107 -1 161 -4 171 -13 32 -24 50 -63
50 -103 0 -45 -18 -68 -159 -198 -64 -59 -101 -120 -101 -166 0 -24 13 -54 21
-49 9 5 98 -42 149 -80 30 -22 78 -56 105 -75 54 -36 80 -57 125 -96 15 -14
49 -43 76 -65 46 -39 155 -149 181 -183 7 -9 38 -51 68 -92 29 -41 71 -99 92
-127 21 -29 44 -53 52 -53 8 0 11 -3 8 -7 -7 -6 21 -43 32 -43 3 0 7 21 8 46
1 25 8 58 16 73 8 15 12 42 9 60 -2 19 0 31 7 31 7 0 11 20 11 49 0 41 3 51
21 56 16 5 18 9 8 21 -9 12 -8 14 7 13 40 -4 74 1 74 12 0 6 -77 164 -171 352
-95 188 -213 439 -264 557 -85 196 -118 271 -256 572 -43 95 -60 113 -85 88
-11 -11 -37 -13 -104 -7 -25 2 -51 -1 -58 -7 -9 -7 -20 -6 -33 3 -11 6 -30 9
-42 5 -12 -4 -46 -8 -77 -9 -290 -13 -356 -17 -430 -25 -47 -5 -114 -12 -149
-15 -36 -2 -69 -9 -75 -15 -8 -8 1 -10 32 -7 26 2 42 0 42 -7 0 -7 -45 -11
-143 -11 -78 0 -179 -2 -225 -5 -84 -5 -131 1 -101 12 30 12 482 71 629 83 41
4 102 11 135 17 74 13 122 18 157 19 17 0 25 4 22 12 -3 9 10 12 47 10 28 -1
63 3 78 9 24 10 127 18 211 18 19 0 48 -5 63 -12 15 -6 29 -9 32 -7 2 2 -13
41 -33 87 -26 58 -42 82 -54 82 -10 0 -18 -5 -18 -11 0 -6 -7 -9 -15 -5 -8 3
-15 1 -15 -4 0 -6 13 -10 29 -10 17 0 33 -5 37 -12 12 -19 -23 -35 -94 -42
-113 -11 -269 -36 -427 -67 -82 -16 -222 -41 -310 -54 -173 -27 -208 -34 -358
-65 -106 -22 -136 -25 -121 -12 16 15 245 71 454 113 67 13 141 31 239 58 41
12 85 21 98 21 13 0 23 5 23 11 0 5 -4 7 -10 4 -5 -3 -10 -2 -10 3 0 11 30 25
38 17 3 -3 -1 -5 -8 -5 -23 0 -1 -13 27 -16 18 -2 23 0 15 5 -11 7 -10 9 2 14
9 4 16 2 16 -3 0 -6 5 -10 11 -10 5 0 7 5 4 10 -3 6 -2 10 4 10 5 0 12 -6 14
-12 3 -7 6 -4 6 7 1 15 4 16 13 7 17 -17 36 -15 34 5 -1 12 12 22 39 31 65 22
176 49 228 57 27 3 47 9 45 13 -2 4 -11 28 -22 55 -10 26 -25 47 -32 47 -8 0
-14 -4 -14 -10 0 -13 -56 -36 -108 -45 -23 -4 -44 -11 -48 -16 -3 -5 -16 -9
-30 -9 -13 0 -24 -4 -24 -8 0 -4 -8 -8 -17 -9 -28 -1 -203 -57 -235 -74 -10
-5 -25 -9 -35 -9 -9 0 -30 -4 -47 -9 -17 -5 -69 -21 -116 -35 -191 -57 -433
-121 -495 -130 l-40 -6 50 21 c43 18 199 68 488 155 43 13 82 26 87 29 5 3 44
16 87 29 105 32 334 114 347 125 6 4 38 16 71 26 33 10 62 20 64 21 7 6 -411
768 -470 854 -15 23 -16 22 -78 -86z m199 -1318 c0 -3 -4 -8 -10 -11 -5 -3
-10 -1 -10 4 0 6 5 11 10 11 6 0 10 -2 10 -4z m160 -31 c41 -16 13 -20 -38 -6
-35 10 -42 0 -18 -25 11 -11 16 -11 20 -1 3 6 4 1 3 -12 -1 -16 4 -25 16 -27
9 -1 17 3 17 9 0 5 3 7 6 4 4 -4 1 -13 -6 -22 -7 -8 -9 -15 -6 -15 4 0 1 -6
-6 -14 -11 -11 -15 -9 -25 13 -20 40 -93 68 -93 35 0 -8 5 -12 10 -9 6 3 13 0
16 -9 3 -8 20 -18 37 -22 29 -6 30 -7 12 -20 -18 -13 -17 -14 11 -15 90 -3
105 -9 81 -34 -14 -13 -17 -13 -31 1 -9 8 -16 11 -16 6 0 -16 -23 -20 -50 -9
-14 5 -36 9 -49 8 -17 -2 -22 1 -18 12 4 10 -1 13 -19 9 -18 -3 -24 0 -25 14
-3 66 -4 69 -21 68 -21 -2 -21 -2 -6 30 l11 26 14 -26 c7 -15 13 -33 13 -41 0
-8 4 -12 10 -8 5 3 7 12 4 19 -3 7 2 16 10 19 9 4 13 13 10 22 -5 11 1 15 21
15 15 0 24 4 20 10 -9 14 43 11 85 -5z m-145 -15 c3 -5 1 -10 -4 -10 -6 0 -11
5 -11 10 0 6 2 10 4 10 3 0 8 -4 11 -10z m215 -10 c0 -5 -7 -10 -15 -10 -8 0
-15 5 -15 10 0 6 7 10 15 10 8 0 15 -4 15 -10z m-550 -4 c0 -3 -4 -8 -10 -11
-5 -3 -10 -1 -10 4 0 6 5 11 10 11 6 0 10 -2 10 -4z m696 -36 c27 0 103 -33
108 -46 5 -13 -33 -3 -99 27 -23 10 -65 24 -95 31 -51 11 -53 12 -25 18 21 5
40 1 61 -12 17 -10 40 -18 50 -18z m34 20 c13 -8 13 -10 -2 -10 -9 0 -20 5
-23 10 -8 13 5 13 25 0z m195 -20 c-5 -8 -89 -3 -145 8 -33 6 -32 7 20 12 54
5 133 -8 125 -20z m-355 -29 c44 -39 44 -40 25 -55 -17 -14 -18 -17 -5 -26 13
-9 13 -11 0 -20 -22 -14 -35 -7 -35 19 0 12 -12 31 -25 42 -14 10 -21 19 -17
19 4 0 3 9 -3 20 -11 20 -6 40 8 40 4 0 28 -18 52 -39z m93 -67 c8 -8 -3 -34
-14 -34 -5 0 -9 9 -9 20 0 19 11 26 23 14z m67 -19 c0 -8 -4 -15 -10 -15 -5 0
-10 7 -10 15 0 8 5 15 10 15 6 0 10 -7 10 -15z m-190 -11 c0 -8 -5 -12 -10 -9
-6 4 -8 11 -5 16 9 14 15 11 15 -7z m410 -209 c0 -8 -7 -15 -15 -15 -26 0 -18
20 13 29 1 1 2 -6 2 -14z m-10 -175 c0 -5 -5 -10 -11 -10 -5 0 -7 5 -4 10 3 6
8 10 11 10 2 0 4 -4 4 -10z m-30 -4 c0 -11 -19 -15 -25 -6 -3 5 1 10 9 10 9 0
16 -2 16 -4z m147 -41 c0 -8 -7 -15 -14 -15 -8 0 -11 4 -8 10 3 6 -1 7 -9 4
-9 -3 -16 -1 -16 5 0 6 11 11 23 11 14 0 24 -6 24 -15z m-2228 -441 c12 -14
26 -35 31 -47 11 -23 16 -33 66 -113 70 -112 77 -131 64 -187 -14 -62 -24 -82
-37 -82 -6 0 -19 -10 -30 -23 -19 -24 -36 -28 -130 -24 -38 1 -59 8 -73 22
-11 11 -29 20 -40 20 -11 0 -30 10 -42 22 -12 12 -15 19 -7 16 120 -48 221
-71 254 -58 14 5 24 14 20 19 -3 5 -1 12 4 15 4 3 8 42 8 87 0 82 -12 120 -54
170 -7 9 -24 42 -36 75 -44 112 -44 141 2 88z m152 -6 c11 -21 11 -22 -4 -9
-10 7 -17 17 -17 22 0 15 9 10 21 -13z m1998 -43 c13 -14 21 -28 18 -31 -5 -5
-57 43 -57 52 0 11 18 1 39 -21z m-1889 -106 c0 -6 -4 -7 -10 -4 -5 3 -10 11
-10 16 0 6 5 7 10 4 6 -3 10 -11 10 -16z m20 -34 c7 -9 8 -15 2 -15 -5 0 -12
7 -16 15 -3 8 -4 15 -2 15 2 0 9 -7 16 -15z m4 -335 c6 0 13 -15 14 -32 1 -18
5 -41 8 -51 4 -11 1 -17 -8 -15 -9 2 -12 -6 -10 -24 2 -22 -1 -28 -16 -28 -27
0 -44 24 -37 52 5 19 1 27 -19 37 -14 8 -22 19 -19 27 4 11 9 10 29 -3 13 -8
25 -11 25 -7 1 5 2 14 4 19 1 6 3 21 5 35 2 18 4 20 7 8 2 -10 10 -18 17 -18z
m-478 -59 c-4 -5 14 -7 39 -5 53 5 98 -11 55 -19 -14 -3 -47 -10 -74 -15 -35
-7 -55 -6 -71 2 -23 12 -23 13 -4 24 11 7 24 10 29 7 5 -3 11 -1 15 5 3 5 8
10 11 10 3 0 3 -4 0 -9z m334 -11 c0 -5 -7 -10 -15 -10 -8 0 -15 5 -15 10 0 6
7 10 15 10 8 0 15 -4 15 -10z m185 -92 c-10 -31 -25 -47 -25 -26 0 24 11 48
22 48 5 0 6 -10 3 -22z m125 -81 c0 -8 -6 -14 -14 -14 -8 0 -12 6 -9 14 3 7 9
13 14 13 5 0 9 -6 9 -13z m-670 -64 c18 -32 43 -72 56 -89 58 -78 149 -278
141 -311 -3 -16 -5 -16 -11 2 -5 11 -23 52 -42 92 -19 39 -34 75 -34 78 0 4
-13 24 -28 44 -51 65 -132 211 -132 237 0 2 4 4 9 4 5 0 24 -26 41 -57z m491
-76 c-13 -13 -15 21 -3 50 6 15 8 13 10 -11 2 -16 -1 -33 -7 -39z m-691 -27
c0 -5 -2 -10 -4 -10 -3 0 -8 5 -11 10 -3 6 -1 10 4 10 6 0 11 -4 11 -10z m-15
-149 c3 -5 1 -12 -5 -16 -5 -3 -10 1 -10 9 0 18 6 21 15 7z m95 -11 c-8 -5
-19 -10 -25 -10 -5 0 -3 5 5 10 8 5 20 10 25 10 6 0 3 -5 -5 -10z m0 -65 c-7
-8 -23 -15 -35 -15 -12 0 -28 -7 -35 -15 -18 -21 -24 -11 -9 13 7 11 19 17 30
15 9 -3 26 0 36 6 25 14 28 14 13 -4z m236 -152 c-7 -7 -26 7 -26 19 0 6 6 6
15 -2 9 -7 13 -15 11 -17z"/>
<path d="M3526 4535 c-3 -8 -1 -15 4 -15 6 0 10 7 10 15 0 8 -2 15 -4 15 -2 0
-6 -7 -10 -15z"/>
<path d="M3568 4542 c-17 -7 -16 -8 2 -20 17 -11 20 -10 20 8 0 11 -1 20 -2
19 -2 0 -11 -4 -20 -7z"/>
<path d="M4868 5613 c7 -3 16 -2 19 1 4 3 -2 6 -13 5 -11 0 -14 -3 -6 -6z"/>
<path d="M5460 5600 c0 -5 5 -10 10 -10 6 0 10 5 10 10 0 6 -4 10 -10 10 -5 0
-10 -4 -10 -10z"/>
<path d="M6267 5584 c-3 -3 -63 -7 -133 -10 -71 -3 -154 -10 -184 -15 -30 -5
-72 -9 -92 -9 -21 0 -51 -6 -66 -14 -16 -8 -32 -13 -34 -10 -3 2 -24 -3 -48
-11 -23 -8 -55 -15 -71 -15 -15 0 -30 -4 -34 -9 -3 -5 -18 -12 -34 -16 -32 -7
-56 -46 -39 -63 8 -8 4 -9 -12 -5 -20 5 -21 4 -12 -14 6 -11 9 -37 5 -57 -3
-21 -1 -42 6 -49 6 -8 8 -17 4 -20 -3 -4 -1 -7 5 -7 7 0 12 -9 12 -19 0 -11 9
-23 20 -26 11 -3 20 -10 20 -15 0 -14 66 -80 79 -80 6 0 11 -6 11 -14 0 -8 10
-18 23 -21 12 -4 36 -18 54 -31 18 -14 51 -33 75 -44 46 -21 75 -38 95 -57 7
-6 27 -15 45 -18 18 -4 38 -11 43 -15 12 -9 88 -34 94 -31 2 2 7 -1 10 -6 6
-9 96 -47 116 -49 6 -1 26 -8 45 -16 47 -20 69 -28 74 -25 2 1 13 -6 23 -16
11 -9 23 -14 26 -10 4 3 7 1 7 -5 0 -7 7 -12 15 -12 8 0 63 -22 123 -50 60
-27 115 -50 123 -50 8 0 23 -6 34 -14 52 -35 217 -51 315 -30 36 8 74 16 85
18 11 2 40 10 65 17 57 16 58 16 71 18 18 2 4 66 -55 244 -65 194 -133 356
-224 532 l-68 130 -50 2 c-27 1 -152 5 -279 8 -126 3 -242 8 -257 9 -15 2 -29
2 -31 0z"/>
<path d="M4290 5079 c0 -5 9 -9 20 -9 11 0 20 2 20 4 0 2 -9 6 -20 9 -11 3
-20 1 -20 -4z"/>
<path d="M3736 4994 c-6 -16 2 -18 22 -5 11 7 11 9 -1 14 -9 3 -18 -1 -21 -9z"/>
<path d="M3795 5000 c-19 -8 -19 -9 3 -9 12 -1 22 4 22 9 0 6 -1 10 -2 9 -2 0
-12 -4 -23 -9z"/>
<path d="M4343 4978 c46 -108 60 -128 90 -128 20 0 30 6 34 19 5 20 39 35 56
24 5 -3 7 -14 4 -24 -9 -32 10 -31 22 1 7 22 7 30 -1 30 -6 0 -9 2 -6 5 3 3
18 -1 34 -10 38 -20 65 -20 38 -1 -17 13 -17 14 -1 12 9 -1 22 -7 28 -13 8 -8
20 -8 40 -1 17 6 42 7 57 4 54 -13 137 -14 144 -3 5 8 8 6 8 -5 0 -21 16 -24
23 -5 4 9 8 9 15 -2 7 -10 11 -10 17 -1 4 7 17 9 34 5 60 -15 111 -14 121 3 8
15 9 15 10 -3 0 -18 7 -20 81 -19 44 0 82 -3 85 -7 2 -4 22 -5 44 -2 23 3 46
1 54 -6 11 -9 15 -8 20 6 5 13 9 14 15 5 4 -6 19 -13 34 -14 18 -2 26 -7 23
-15 -3 -8 2 -13 12 -13 10 0 24 -6 30 -12 10 -10 17 -10 32 -1 11 8 20 9 22 2
2 -5 18 -10 36 -12 17 -1 32 -6 32 -11 0 -5 3 -7 6 -3 4 3 25 -4 48 -17 22
-12 47 -21 54 -19 6 3 12 0 12 -6 0 -6 19 -11 44 -11 24 0 46 -4 48 -10 2 -5
14 -11 28 -12 14 -2 31 -10 38 -18 8 -8 11 -9 7 -2 -4 7 0 12 10 12 9 0 13 -4
10 -10 -3 -5 -1 -11 4 -11 6 -1 16 -3 21 -4 6 -1 22 -3 36 -4 16 -1 23 -5 18
-13 -5 -7 -2 -9 8 -5 9 3 25 -1 37 -10 12 -8 29 -12 37 -9 8 3 13 2 10 -3 -3
-5 5 -11 19 -13 52 -10 23 18 -42 41 -38 13 -72 27 -78 31 -5 4 -56 24 -113
45 -57 21 -109 44 -117 51 -7 8 -19 14 -27 14 -12 0 -66 19 -182 66 -32 13
-63 21 -68 18 -5 -3 -14 -1 -21 5 -18 15 -155 44 -267 57 -25 3 -62 9 -84 14
-21 5 -52 6 -70 3 -17 -2 -50 0 -73 5 -27 6 -43 6 -43 0 0 -5 -5 -6 -12 -2
-15 9 -49 12 -283 18 -213 7 -260 10 -293 20 -23 8 -23 7 -9 -26z m914 -64
c-3 -3 -12 -4 -19 -1 -8 3 -5 6 6 6 11 1 17 -2 13 -5z m-117 -25 c0 -5 -4 -9
-10 -9 -5 0 -10 7 -10 16 0 8 5 12 10 9 6 -3 10 -10 10 -16z m160 -9 c0 -5 -2
-10 -4 -10 -3 0 -8 5 -11 10 -3 6 -1 10 4 10 6 0 11 -4 11 -10z m425 -110 c13
-6 15 -9 5 -9 -8 0 -22 4 -30 9 -18 12 -2 12 25 0z"/>
<path d="M3640 4991 c0 -16 38 -23 57 -11 17 11 17 11 0 6 -10 -3 -27 -1 -38
4 -12 7 -19 7 -19 1z"/>
<path d="M4420 4817 c0 -17 339 -719 501 -1037 108 -212 202 -400 209 -417 15
-40 22 -41 48 -8 11 14 25 25 31 25 6 0 11 4 11 9 0 5 10 12 23 16 12 4 25 8
30 10 4 1 13 3 21 4 8 0 21 7 28 14 14 14 49 31 60 29 4 -1 28 7 53 18 26 11
61 23 78 26 17 3 40 12 49 21 10 9 21 14 24 10 3 -3 20 1 39 8 18 8 35 12 38
9 3 -3 15 -1 26 5 11 7 58 12 103 13 88 1 185 -24 239 -63 15 -10 30 -19 34
-19 9 0 74 -72 75 -82 0 -5 5 -8 11 -8 6 0 17 -7 25 -15 12 -12 12 -15 2 -15
-8 0 -6 -5 5 -11 9 -6 15 -14 12 -20 -4 -5 4 -13 17 -18 13 -6 19 -10 14 -10
-4 -1 3 -16 18 -35 14 -19 26 -39 26 -45 0 -6 17 -43 37 -83 20 -40 42 -86 49
-103 7 -16 38 -83 69 -148 31 -65 55 -122 53 -127 -8 -25 -54 40 -117 167 -79
161 -101 201 -116 213 -8 7 -15 17 -15 22 0 5 -13 23 -30 39 -16 17 -29 36
-27 42 1 7 -4 11 -11 9 -8 -1 -11 2 -7 8 7 12 -10 46 -38 78 -11 12 -17 22
-13 22 3 0 -7 14 -24 30 -17 17 -27 30 -23 30 4 0 -8 10 -27 21 -19 12 -40 28
-46 37 -6 9 -18 13 -28 9 -9 -4 -16 -3 -16 2 0 17 -84 33 -144 26 -63 -7 -116
-24 -116 -37 0 -5 -10 -8 -23 -8 -13 0 -32 -7 -43 -15 -10 -8 -26 -15 -35 -15
-8 0 -39 -11 -67 -25 -29 -14 -59 -25 -67 -25 -8 0 -24 -8 -34 -17 -38 -35
-50 -43 -65 -43 -8 0 -27 -5 -43 -11 -15 -6 -53 -14 -83 -16 -30 -3 -57 -6
-59 -8 -1 -2 8 -29 22 -59 19 -41 30 -54 41 -50 9 3 16 10 16 15 0 5 7 9 15 9
8 0 15 4 15 10 0 12 70 46 113 55 18 4 37 11 42 15 6 4 25 11 43 15 22 4 32
12 32 25 0 18 31 32 75 34 11 1 19 7 17 14 -1 6 8 12 20 12 12 0 32 10 44 21
30 29 131 69 169 68 52 -1 123 -32 174 -76 43 -37 50 -49 60 -100 7 -32 12
-64 13 -70 1 -7 6 -13 11 -13 5 0 7 -9 4 -20 -4 -16 0 -20 19 -20 84 0 168
-107 255 -327 16 -42 35 -86 42 -97 6 -12 10 -28 9 -38 -3 -19 14 -33 23 -18
3 5 1 10 -4 10 -6 0 -11 5 -11 10 0 21 27 9 62 -27 67 -71 71 -104 16 -156
-26 -25 -28 -32 -20 -55 6 -15 27 -86 48 -159 21 -73 40 -131 42 -129 2 3 14
49 27 103 45 192 94 372 111 408 20 44 59 75 91 75 39 0 83 -51 83 -97 0 -74
-136 -609 -179 -708 -53 -120 -180 -160 -267 -83 -52 46 -78 98 -135 268 -28
85 -53 157 -55 159 -5 6 -147 -87 -200 -132 -40 -33 -113 -77 -129 -77 -13 0
-2 22 27 56 38 43 186 144 243 165 35 13 40 19 38 43 -1 16 -4 31 -7 33 -2 3
-37 -5 -78 -18 -114 -34 -203 -37 -170 -5 4 4 7 12 7 16 0 5 9 16 20 24 18 14
18 15 3 16 -23 0 -24 20 -1 20 13 0 14 3 5 12 -18 18 -15 36 7 43 11 3 54 -1
95 -9 41 -9 78 -16 81 -16 12 0 3 51 -26 153 -27 91 -35 107 -53 108 -17 1
-17 2 -3 6 20 5 20 8 7 34 -25 46 -50 13 -90 -116 -31 -102 -78 -310 -105
-470 -14 -77 -32 -162 -41 -190 -34 -108 -103 -165 -197 -165 -38 0 -47 -3
-47 -17 -1 -21 -14 -39 -55 -73 -17 -14 -71 -70 -121 -125 -136 -149 -345
-359 -464 -464 -58 -52 -139 -126 -180 -165 -161 -151 -218 -191 -309 -216
-73 -21 -166 -26 -175 -11 -3 4 -22 11 -42 14 -80 13 -242 140 -295 232 -31
54 -38 82 -12 50 l16 -20 -8 20 c-27 74 -37 137 -42 280 l-6 160 34 35 34 35
3 -67 c2 -42 -3 -85 -13 -113 -10 -30 -15 -78 -14 -143 1 -53 4 -87 6 -74 2
12 9 20 14 17 5 -4 9 -1 9 4 0 6 -4 11 -10 11 -5 0 -10 16 -10 35 0 19 5 35
10 35 6 0 10 -5 10 -12 0 -6 3 -8 7 -4 4 4 6 52 5 108 -3 76 0 99 9 96 13 -4
16 -21 20 -112 2 -37 7 -60 16 -63 15 -6 18 -63 4 -63 -6 0 -22 -11 -37 -25
-51 -47 -30 -158 45 -237 34 -36 50 -44 127 -64 66 -16 90 -26 93 -39 3 -16
-3 -17 -43 -12 -25 4 -65 16 -88 27 -23 11 -43 18 -46 16 -2 -3 39 -25 92 -51
86 -41 106 -46 174 -49 70 -2 83 0 142 30 36 18 76 43 90 56 14 13 39 34 55
46 123 94 533 493 706 688 55 62 131 138 170 170 l70 57 -34 17 c-19 9 -51 29
-71 45 -33 25 -36 26 -43 9 -6 -17 -61 -86 -130 -164 -13 -13 -23 -28 -23 -32
0 -5 -9 -18 -20 -30 -36 -41 -45 -53 -64 -90 -11 -20 -44 -65 -74 -100 -30
-35 -62 -75 -71 -90 -9 -15 -48 -60 -87 -101 -38 -40 -79 -84 -90 -98 -42 -47
-210 -198 -279 -250 -92 -68 -130 -87 -206 -103 -63 -13 -89 -12 -89 4 0 10
17 15 75 25 68 11 123 43 127 72 2 19 18 36 53 60 54 36 70 50 155 137 30 31
58 56 62 56 4 0 23 24 41 53 19 28 52 71 74 94 22 22 58 70 78 105 21 34 49
75 61 90 12 15 41 63 65 105 23 43 50 87 59 98 10 11 21 31 25 45 4 14 31 61
59 105 29 44 58 94 65 112 7 17 19 34 27 37 8 3 14 13 14 22 0 22 -320 644
-331 644 -5 0 -9 -4 -9 -10 0 -5 -10 -10 -22 -10 -13 0 -34 -9 -48 -20 l-25
-19 23 -21 c30 -28 29 -68 -2 -80 -31 -11 -59 -52 -51 -73 4 -8 1 -18 -4 -22
-6 -3 -9 -11 -6 -16 8 -12 -45 -58 -67 -59 -15 0 -18 9 -18 50 0 42 -3 50 -19
50 -10 0 -29 -8 -41 -18 -18 -15 -23 -29 -24 -77 -1 -53 -4 -61 -26 -72 -16
-8 -28 -9 -36 -2 -8 7 -14 6 -19 -1 -10 -16 -25 -12 -25 7 0 9 -7 24 -15 33
-9 10 -19 40 -24 67 -4 28 -17 64 -29 81 -12 16 -22 35 -22 40 0 5 -7 23 -15
38 -11 20 -14 45 -11 79 4 33 3 42 -3 25 -7 -23 -9 -20 -25 30 -24 79 -32 135
-18 126 14 -9 15 13 2 34 -8 13 -10 12 -10 -4 0 -36 -37 11 -66 86 -15 38 -35
77 -43 88 -9 10 -33 46 -53 79 -41 65 -137 152 -228 204 -30 17 -97 57 -148
89 -51 32 -95 58 -98 58 -2 0 4 -17 15 -38 15 -30 29 -41 73 -56 128 -46 261
-125 321 -193 46 -51 107 -169 107 -206 l0 -32 -17 35 c-49 106 -68 139 -100
178 -37 46 -127 110 -183 132 -19 7 -61 26 -94 42 -32 16 -60 27 -63 25 -4 -5
549 -1108 601 -1199 29 -49 44 -136 32 -182 -8 -33 -61 -93 -99 -113 -55 -28
-147 -31 -537 -14 -324 14 -417 14 -585 4 -123 -8 -428 -12 -790 -11 -389 0
-743 -5 -1040 -17 -247 -9 -473 -14 -500 -10 -58 7 -120 39 -148 76 -45 62
-29 176 50 339 25 52 69 145 99 206 29 60 68 132 87 160 18 27 48 81 66 119
18 39 58 117 90 175 32 58 75 143 95 190 20 47 66 139 102 205 l65 120 -21 74
c-12 41 -20 90 -19 110 1 20 -3 49 -10 64 -6 16 -11 32 -11 36 0 5 -13 25 -30
46 -17 21 -30 50 -30 65 0 18 -11 37 -35 58 -19 18 -37 32 -40 32 -2 0 -30 17
-61 38 -73 48 -70 46 -134 76 -68 31 -281 106 -500 177 -91 29 -187 64 -215
78 -37 18 -71 26 -133 29 -48 3 -82 1 -82 -5 0 -5 30 -9 68 -9 62 1 75 -3 192
-60 153 -75 238 -114 249 -114 5 0 35 -12 67 -27 33 -14 64 -26 70 -25 6 1 17
-5 24 -13 7 -8 18 -15 24 -15 10 0 156 -70 166 -80 3 -3 21 -14 40 -24 19 -11
44 -30 56 -43 11 -12 24 -20 27 -16 4 3 7 -1 7 -9 0 -8 12 -32 26 -53 15 -23
22 -41 16 -47 -5 -5 -16 1 -26 16 -9 15 -26 26 -37 26 -12 0 -23 8 -26 18 -6
22 -96 93 -148 117 -22 9 -47 23 -55 30 -8 7 -53 27 -100 46 -47 18 -186 84
-310 147 -204 103 -229 113 -267 109 -24 -2 -49 -10 -57 -16 -36 -30 -54 -604
-27 -861 74 -707 337 -1351 777 -1905 172 -216 572 -592 717 -674 23 -13 46
-29 52 -36 28 -35 339 -220 354 -210 6 3 11 24 11 45 0 76 15 76 20 0 l5 -75
65 -32 c400 -198 867 -326 1324 -363 180 -14 172 -15 153 12 -9 13 -43 78 -77
146 -56 113 -68 160 -39 150 17 -6 66 -98 95 -180 14 -40 37 -88 51 -105 l24
-33 114 0 c311 0 684 57 1018 156 9 3 14 10 11 16 -5 7 0 9 15 5 44 -11 473
157 505 197 6 8 29 19 51 25 50 13 255 129 395 225 360 244 725 609 966 966
501 742 712 1652 586 2530 l-17 115 -90 3 c-128 4 -197 9 -302 23 -51 6 -99 9
-107 6 -9 -4 -18 -2 -21 3 -7 11 -33 9 -53 -3 -7 -5 -14 -3 -17 5 -4 9 -20 13
-47 11 -22 -1 -49 2 -58 7 -9 5 -45 10 -78 12 -34 2 -62 6 -62 9 0 3 -35 12
-77 19 -43 7 -82 16 -88 20 -9 7 -28 11 -95 23 -9 2 -21 7 -29 11 -7 5 -30 13
-50 18 -77 20 -117 30 -136 35 -11 3 -32 6 -47 6 -16 0 -28 3 -28 8 0 10 -40
24 -60 21 -8 -1 -39 7 -69 18 -30 10 -57 17 -62 15 -4 -3 -10 1 -12 7 -4 10
-8 9 -16 -2 -9 -13 -11 -13 -11 3 0 19 -20 24 -20 5 0 -7 -5 -5 -11 5 -6 9
-14 15 -19 12 -5 -3 -19 -1 -30 5 -16 9 -25 8 -36 -1 -11 -9 -17 -9 -29 1 -8
7 -12 16 -9 21 3 5 1 9 -5 9 -5 0 -14 -7 -19 -16 -8 -14 -14 -15 -46 -3 -20 7
-36 16 -36 20 0 3 -26 5 -57 4 -32 -1 -66 2 -75 7 -12 5 -26 5 -39 -3 -12 -6
-19 -7 -16 -1 4 5 -32 9 -91 10 -53 0 -110 5 -125 11 -16 6 -26 7 -23 2 3 -4
-6 -6 -20 -3 -19 3 -23 7 -12 14 9 7 8 8 -7 6 -12 -2 -19 -11 -19 -21 1 -9 -2
-14 -7 -11 -5 3 -9 11 -9 17 0 8 -21 13 -60 14 -33 0 -60 -3 -60 -8 0 -5 -4
-9 -10 -9 -5 0 -9 6 -7 13 2 11 -4 11 -44 0 -9 -3 -23 2 -31 11 -9 8 -18 13
-20 10 -3 -2 -17 0 -32 6 -15 5 -33 7 -39 3 -6 -4 -25 -8 -42 -9 -24 -2 -26
-1 -10 6 24 10 23 11 -40 14 -27 2 -65 6 -82 10 -18 4 -33 6 -33 3z m130 -37
c0 -5 -5 -10 -11 -10 -5 0 -7 5 -4 10 3 6 8 10 11 10 2 0 4 -4 4 -10z m890
-130 c0 -5 -4 -10 -10 -10 -5 0 -10 5 -10 10 0 6 5 10 10 10 6 0 10 -4 10 -10z
m-347 -77 c-7 -2 -19 -2 -25 0 -7 3 -2 5 12 5 14 0 19 -2 13 -5z m57 -3 c0 -5
-2 -10 -4 -10 -3 0 -8 5 -11 10 -3 6 -1 10 4 10 6 0 11 -4 11 -10z m-235 -30
c3 -5 -3 -10 -15 -10 -12 0 -18 5 -15 10 3 6 10 10 15 10 5 0 12 -4 15 -10z
m175 -15 c0 -8 -2 -15 -4 -15 -2 0 -6 7 -10 15 -3 8 -1 15 4 15 6 0 10 -7 10
-15z m65 5 c3 -5 2 -10 -4 -10 -5 0 -16 -3 -24 -6 -8 -3 -17 2 -20 10 -5 12 0
16 18 16 13 0 27 -4 30 -10z m140 0 c3 -5 -1 -10 -9 -10 -9 0 -16 5 -16 10 0
6 4 10 9 10 6 0 13 -4 16 -10z m61 1 c-6 -9 -46 -22 -46 -15 0 3 10 9 23 14
29 11 29 11 23 1z m224 -6 c10 -12 9 -15 -7 -15 -30 0 -73 -24 -68 -37 5 -13
-41 -15 -60 -3 -20 14 -54 18 -58 6 -2 -6 -8 -7 -13 -3 -12 11 17 28 38 23 23
-5 29 6 12 21 -8 8 -15 9 -19 3 -9 -15 -32 -12 -32 4 0 21 189 22 207 1z
m-850 -25 c0 -5 -4 -10 -10 -10 -5 0 -10 5 -10 10 0 6 5 10 10 10 6 0 10 -4
10 -10z m600 -19 c0 -4 -13 -6 -30 -3 -16 2 -28 8 -25 12 5 9 55 1 55 -9z
m247 13 c30 -8 19 -29 -17 -31 -33 -2 -33 -2 -24 21 7 18 9 18 41 10z m-650
-36 c-3 -8 -6 -5 -6 6 -1 11 2 17 5 13 3 -3 4 -12 1 -19z m176 -28 c-6 -6 -33
30 -33 43 0 5 9 -1 19 -14 11 -13 17 -26 14 -29z m117 35 c0 -8 -4 -15 -9 -15
-13 0 -22 16 -14 24 11 11 23 6 23 -9z m-360 -5 c0 -5 -5 -10 -11 -10 -5 0 -7
5 -4 10 3 6 8 10 11 10 2 0 4 -4 4 -10z m580 0 c0 -5 -5 -10 -11 -10 -5 0 -7
5 -4 10 3 6 8 10 11 10 2 0 4 -4 4 -10z m430 -6 c0 -2 -7 -4 -15 -4 -8 0 -15
4 -15 10 0 5 7 7 15 4 8 -4 15 -8 15 -10z m-820 -4 c0 -5 -2 -10 -4 -10 -3 0
-8 5 -11 10 -3 6 -1 10 4 10 6 0 11 -4 11 -10z m610 0 c0 -5 -2 -10 -4 -10 -3
0 -8 5 -11 10 -3 6 -1 10 4 10 6 0 11 -4 11 -10z m-366 -11 c-3 -6 0 -15 7
-20 10 -6 9 -8 -6 -7 -11 0 -32 -2 -46 -6 -23 -7 -25 -5 -23 16 1 13 3 24 3
26 1 1 17 2 37 2 23 0 33 -4 28 -11z m50 -4 c-4 -8 -10 -15 -15 -15 -4 0 -6 7
-3 15 4 8 10 15 15 15 4 0 6 -7 3 -15z m196 5 c0 -5 -4 -10 -10 -10 -5 0 -10
5 -10 10 0 6 5 10 10 10 6 0 10 -4 10 -10z m90 0 c0 -5 -5 -10 -11 -10 -5 0
-8 -4 -5 -8 3 -5 0 -9 -7 -9 -7 0 -24 -4 -39 -8 -18 -5 -28 -3 -28 4 0 6 14
11 30 11 18 0 33 6 36 15 7 17 24 20 24 5z m-240 -10 c0 -5 -4 -10 -10 -10 -5
0 -10 5 -10 10 0 6 5 10 10 10 6 0 10 -4 10 -10z m355 -1 c-7 -11 -35 -12 -35
-1 0 4 9 8 20 9 11 1 18 -2 15 -8z m-805 -14 c-7 -9 -15 -13 -19 -10 -3 3 1
10 9 15 21 14 24 12 10 -5z m555 5 c-3 -5 -10 -10 -16 -10 -5 0 -9 5 -9 10 0
6 7 10 16 10 8 0 12 -4 9 -10z m200 0 c3 -5 1 -10 -4 -10 -6 0 -11 5 -11 10 0
6 2 10 4 10 3 0 8 -4 11 -10z m-675 -10 c0 -5 -2 -10 -4 -10 -3 0 -8 5 -11 10
-3 6 -1 10 4 10 6 0 11 -4 11 -10z m65 0 c3 -5 1 -10 -4 -10 -6 0 -11 5 -11
10 0 6 2 10 4 10 3 0 8 -4 11 -10z m697 -2 c-9 -9 -15 -9 -24 0 -9 9 -7 12 12
12 19 0 21 -3 12 -12z m501 -187 c14 -5 33 -8 43 -6 11 1 29 -3 40 -10 15 -10
24 -11 32 -3 8 8 10 5 6 -8 -6 -26 17 -66 46 -81 21 -10 29 -9 57 8 18 11 37
18 41 15 5 -3 23 0 40 6 25 10 37 9 59 -2 28 -14 92 -78 93 -92 0 -17 -37 -6
-63 18 -15 14 -31 22 -36 19 -5 -3 -13 0 -16 5 -5 8 -12 7 -23 -3 -10 -8 -27
-18 -39 -21 -13 -4 -23 -12 -23 -18 0 -5 -7 -8 -15 -4 -8 3 -15 2 -15 -2 0 -4
29 -23 65 -42 36 -19 65 -41 65 -47 0 -9 -7 -10 -26 -3 -73 28 -172 86 -200
116 -33 35 -68 47 -58 19 4 -9 0 -15 -9 -15 -8 0 -17 5 -19 11 -2 6 -33 12
-70 14 -37 2 -72 6 -78 10 -6 3 -29 8 -52 11 -49 4 -78 29 -81 69 -2 26 2 30
36 38 26 6 47 6 63 -2 13 -6 24 -7 24 -2 0 5 -6 11 -12 14 -7 2 13 3 44 1 31
-2 68 -8 81 -13z m-183 -356 c0 -6 -72 -36 -77 -32 -4 5 57 36 70 37 4 0 7 -2
7 -5z m-90 -46 c0 -18 -18 -9 -23 12 -4 16 -3 18 9 8 8 -6 14 -15 14 -20z
m-439 -102 c-10 -9 -11 -8 -5 6 3 10 9 15 12 12 3 -3 0 -11 -7 -18z m-241 -3
c0 -2 -9 -4 -21 -4 -11 0 -18 4 -14 10 5 8 35 3 35 -6z m-120 -14 c0 -5 -2
-10 -4 -10 -3 0 -8 5 -11 10 -3 6 -1 10 4 10 6 0 11 -4 11 -10z m37 -107 c-9
-9 -20 -13 -24 -9 -4 4 -1 11 7 16 25 16 35 11 17 -7z m-57 -4 c0 -6 -6 -9
-12 -6 -7 2 -21 0 -30 -5 -14 -6 -16 -5 -12 7 7 17 54 21 54 4z m2080 -439 c0
-5 -5 -10 -11 -10 -5 0 -7 5 -4 10 3 6 8 10 11 10 2 0 4 -4 4 -10z m-670 -529
c0 -39 -28 -93 -63 -122 -37 -31 -51 -22 -24 14 43 57 61 99 49 118 -7 11 -7
20 0 27 19 19 38 1 38 -37z m-1485 -351 c-2 -16 0 -29 3 -29 22 3 32 -4 46
-33 19 -37 21 -69 4 -65 -7 1 -13 -7 -13 -18 0 -11 -3 -24 -6 -30 -4 -5 -5
-20 -4 -33 1 -13 -10 -59 -25 -102 -15 -44 -22 -77 -17 -73 5 3 7 0 5 -8 -3
-8 -11 -13 -18 -11 -10 2 -11 -1 -3 -10 12 -15 13 -48 2 -48 -5 0 -14 -19 -21
-42 -6 -24 -25 -65 -41 -93 -15 -27 -35 -66 -43 -85 -15 -37 -17 -39 -56 -111
-47 -83 -53 -94 -64 -104 -15 -14 -74 -104 -74 -114 0 -4 -11 -14 -25 -21 -14
-7 -25 -17 -25 -20 0 -4 -29 -35 -64 -69 -88 -86 -268 -201 -316 -201 -32 0
-23 15 21 35 73 33 202 125 279 198 76 72 160 171 160 188 0 4 13 28 29 51 17
24 32 59 35 80 3 20 30 83 60 140 30 56 63 126 74 153 10 28 29 75 40 105 30
77 45 190 32 243 -6 23 -13 51 -15 61 -3 11 -9 24 -14 29 -16 16 11 67 36 67
19 0 21 -5 18 -30z m-439 -146 c8 -42 -8 -84 -32 -84 -22 0 -104 -67 -104 -86
0 -8 -6 -14 -14 -14 -11 0 -12 7 -5 33 4 17 10 43 13 57 3 14 15 35 26 48 11
12 18 22 14 22 -3 0 -1 7 6 15 7 9 19 14 25 11 7 -2 19 4 28 15 24 28 35 24
43 -17z m457 -199 c-3 -9 -8 -14 -10 -11 -3 3 -2 9 2 15 9 16 15 13 8 -4z
m-663 -80 c0 -16 -6 -25 -15 -25 -18 0 -18 5 -5 31 14 26 20 24 20 -6z m-2364
-76 c-2 -44 -9 -86 -14 -92 -5 -7 -13 -30 -16 -52 -4 -22 -11 -65 -15 -95 -5
-30 -10 -83 -10 -117 -1 -34 -5 -64 -10 -68 -15 -8 -25 115 -25 285 1 174 9
206 51 213 15 2 32 5 36 6 4 0 6 -35 3 -80z m700 64 c-6 -15 -4 -14 14 2 20
19 21 19 14 -1 -4 -10 -17 -30 -29 -44 -12 -14 -42 -54 -66 -88 -24 -35 -51
-73 -59 -85 -8 -12 -18 -23 -22 -25 -5 -2 -8 -10 -8 -17 0 -7 -7 -15 -15 -19
-22 -8 -117 -158 -106 -166 6 -3 -3 -18 -20 -34 -32 -30 -47 -30 -30 1 5 10
24 50 42 88 17 39 44 85 58 104 28 36 57 83 90 143 45 81 159 198 137 141z
m-389 1 c-3 -3 -12 -4 -19 -1 -8 3 -5 6 6 6 11 1 17 -2 13 -5z m1030 -56 c-3
-7 -5 -2 -5 12 0 14 2 19 5 13 2 -7 2 -19 0 -25z m1000 10 c-3 -8 -6 -5 -6 6
-1 11 2 17 5 13 3 -3 4 -12 1 -19z m-292 -46 c-4 -15 -10 -78 -14 -140 -4 -67
-12 -117 -20 -125 -10 -9 -11 -9 -7 3 3 8 8 76 10 150 2 74 7 143 11 154 7 17
9 17 17 1 6 -9 7 -28 3 -43z m-939 6 c-1 -43 -16 -52 -16 -10 -1 26 -1 26 -20
-10 -11 -20 -32 -49 -46 -65 -14 -15 -30 -38 -35 -50 -7 -20 -29 -33 -29 -18
0 17 43 87 59 97 11 6 17 17 14 24 -7 18 34 70 56 70 15 0 18 -8 17 -38z
m-1646 -5 c0 -25 -15 -12 -17 14 -1 19 1 22 8 12 5 -8 9 -20 9 -26z m1360 16
c-5 -9 -7 -19 -3 -22 10 -11 -16 -34 -42 -40 -30 -5 -31 0 -5 33 11 14 20 30
20 35 0 6 9 11 19 11 15 0 17 -4 11 -17z m1464 -98 c-9 -36 -30 -93 -45 -126
-14 -33 -30 -70 -33 -82 -7 -21 -36 -53 -36 -38 0 4 20 57 44 118 24 62 52
139 62 172 24 81 32 42 8 -44z m-498 43 c-4 -9 -9 -15 -11 -12 -3 3 -3 13 1
22 4 9 9 15 11 12 3 -3 3 -13 -1 -22z m-1949 -31 c-3 -10 -5 -2 -5 17 0 19 2
27 5 18 2 -10 2 -26 0 -35z m1130 5 c-3 -8 -6 -5 -6 6 -1 11 2 17 5 13 3 -3 4
-12 1 -19z m-240 -52 c-9 -13 -41 -48 -72 -77 -40 -37 -55 -59 -51 -72 3 -13
0 -17 -12 -15 -33 6 -16 39 62 118 77 78 105 96 73 46z m-904 -4 c-3 -12 -9
-22 -14 -22 -12 0 -11 7 2 32 13 25 20 19 12 -10z m1942 -19 c-8 -53 -24 -92
-25 -60 0 24 21 107 27 107 3 0 2 -21 -2 -47z m-630 7 c17 -18 17 -20 2 -14
-15 5 -17 -1 -17 -50 0 -31 5 -56 10 -56 19 0 10 -29 -12 -41 -13 -6 -33 -21
-45 -32 -26 -23 -31 -11 -8 19 9 12 14 43 15 87 0 51 4 69 15 73 8 4 15 12 15
20 0 19 4 18 25 -6z m-211 -75 c-4 -8 -8 -15 -10 -15 -2 0 -4 7 -4 15 0 8 4
15 10 15 5 0 7 -7 4 -15z m798 -37 c-7 -7 -12 -8 -12 -2 0 14 12 26 19 19 2
-3 -1 -11 -7 -17z m-822 7 c0 -3 -9 -14 -20 -25 -12 -12 -20 -33 -20 -52 0
-24 -11 -44 -38 -74 -20 -23 -42 -49 -48 -59 -6 -11 -15 -20 -21 -22 -15 -5
-4 44 13 58 8 6 14 18 14 25 0 8 11 20 25 26 14 6 25 19 25 29 0 20 50 98 63
99 4 0 7 -2 7 -5z m833 -61 c8 -8 -3 -34 -14 -34 -5 0 -9 9 -9 20 0 19 11 26
23 14z m-1946 -126 c-3 -8 -6 -5 -6 6 -1 11 2 17 5 13 3 -3 4 -12 1 -19z
m1243 12 c0 -5 -6 -13 -13 -17 -24 -14 -79 -82 -81 -100 -2 -10 -11 -20 -22
-22 -10 -2 -25 -12 -32 -23 -8 -11 -20 -17 -28 -14 -8 3 -25 0 -39 -6 -66 -30
-17 32 55 69 19 10 59 42 89 71 53 51 71 62 71 42z m643 -136 c6 -38 -4 -77
-24 -90 -9 -5 -10 -1 -5 17 21 73 19 84 -18 124 -46 49 -46 54 3 15 27 -22 40
-42 44 -66z m-1746 44 c-3 -7 -5 -2 -5 12 0 14 2 19 5 13 2 -7 2 -19 0 -25z
m379 6 c-4 -9 -9 -15 -11 -12 -3 3 -3 13 1 22 4 9 9 15 11 12 3 -3 3 -13 -1
-22z m1774 9 c0 -32 -113 -134 -130 -117 -12 12 -2 25 40 54 19 13 44 34 54
47 19 22 36 30 36 16z m-2140 -53 c0 -5 -4 -10 -10 -10 -5 0 -10 5 -10 10 0 6
5 10 10 10 6 0 10 -4 10 -10z m0 -55 c0 -8 -4 -15 -10 -15 -5 0 -7 7 -4 15 4
8 8 15 10 15 2 0 4 -7 4 -15z m-3 -62 c-3 -10 -5 -4 -5 12 0 17 2 24 5 18 2
-7 2 -21 0 -30z m2013 2 c0 -8 -2 -15 -4 -15 -2 0 -6 7 -10 15 -3 8 -1 15 4
15 6 0 10 -7 10 -15z m-185 -25 c-3 -5 -12 -10 -18 -10 -7 0 -6 4 3 10 19 12
23 12 15 0z m-1237 -48 c-1 -38 -53 -71 -76 -48 -21 20 -3 71 25 71 12 0 24 3
28 7 13 13 24 -1 23 -30z m1292 -12 c0 -20 -2 -22 -10 -10 -5 8 -10 26 -10 40
0 20 2 22 10 10 5 -8 10 -26 10 -40z m-2100 16 c0 -3 -4 -8 -10 -11 -5 -3 -10
-1 -10 4 0 6 5 11 10 11 6 0 10 -2 10 -4z m-80 -10 c0 -2 -7 -6 -15 -10 -8 -3
-15 -1 -15 4 0 6 7 10 15 10 8 0 15 -2 15 -4z m366 -52 c-4 -13 -12 -23 -18
-21 -7 1 -13 -4 -14 -10 -3 -23 -4 -24 -14 -18 -7 4 -7 12 -2 18 5 7 7 26 5
44 -2 24 1 31 11 27 8 -3 18 1 22 8 11 18 18 -15 10 -48z m-76 21 c-9 -10 -9
-15 -1 -15 6 0 11 -4 11 -10 0 -16 -17 -11 -24 7 -4 9 -1 20 6 25 19 12 22 10
8 -7z m2455 -23 c-17 -14 -65 -32 -65 -24 0 5 12 13 28 19 34 14 49 16 37 5z
m-2680 -42 c3 -5 -1 -10 -9 -10 -9 0 -16 5 -16 10 0 6 4 10 9 10 6 0 13 -4 16
-10z m235 0 c0 -5 -4 -10 -10 -10 -5 0 -10 5 -10 10 0 6 5 10 10 10 6 0 10 -4
10 -10z m35 -53 c1 -14 -5 -33 -12 -43 -11 -16 -13 -12 -13 30 0 34 4 46 13
44 6 -3 12 -16 12 -31z m323 -79 c-6 -18 -13 -27 -15 -21 -4 11 13 53 22 53 2
0 -1 -15 -7 -32z m-341 -10 c-3 -8 -6 -5 -6 6 -1 11 2 17 5 13 3 -3 4 -12 1
-19z m269 -3 c-11 -44 -26 -78 -33 -72 -9 9 18 97 29 97 6 0 7 -11 4 -25z
m-55 -128 c-10 -9 -11 -8 -5 6 3 10 9 15 12 12 3 -3 0 -11 -7 -18z m51 -9 c-7
-7 -12 -8 -12 -2 0 14 12 26 19 19 2 -3 -1 -11 -7 -17z m2102 -99 c-45 -73
-105 -139 -125 -139 -10 0 -26 11 -34 24 -15 22 -15 27 -1 55 17 31 74 81 94
81 7 0 12 3 12 8 0 4 12 15 28 24 22 14 29 15 40 4 12 -11 9 -21 -14 -57z
m616 -83 c0 -11 -19 -15 -25 -6 -3 5 1 10 9 10 9 0 16 -2 16 -4z m-40 -15 c0
-6 -8 -9 -17 -9 -10 0 -26 -3 -35 -7 -11 -4 -18 -3 -18 3 0 9 20 17 58 21 6 0
12 -3 12 -8z m-110 -25 c0 -3 -4 -8 -10 -11 -5 -3 -10 -1 -10 4 0 6 5 11 10
11 6 0 10 -2 10 -4z m-105 -36 c-3 -5 -10 -10 -16 -10 -5 0 -9 5 -9 10 0 6 7
10 16 10 8 0 12 -4 9 -10z"/>
<path d="M5450 4510 c0 -19 3 -21 12 -12 9 9 9 15 0 24 -9 9 -12 7 -12 -12z"/>
<path d="M5480 4510 c0 -5 7 -10 15 -10 8 0 15 5 15 10 0 6 -7 10 -15 10 -8 0
-15 -4 -15 -10z"/>
<path d="M6478 4033 c7 -3 16 -2 19 1 4 3 -2 6 -13 5 -11 0 -14 -3 -6 -6z"/>
<path d="M4345 500 c-22 -21 -36 -42 -33 -46 7 -6 88 67 88 79 0 14 -16 4 -55
-33z"/>
<path d="M2958 4723 c7 -3 16 -2 19 1 4 3 -2 6 -13 5 -11 0 -14 -3 -6 -6z"/>
<path d="M6167 4623 c-14 -14 -6 -21 35 -27 23 -4 50 -14 60 -23 10 -9 21 -14
24 -11 3 4 20 2 37 -3 18 -6 44 -11 58 -13 14 -2 43 -9 65 -14 95 -26 133 -33
194 -37 82 -5 161 -15 180 -22 8 -3 67 -7 130 -8 63 -2 115 -4 115 -5 0 -1 13
-4 29 -6 18 -3 32 0 37 8 7 10 9 10 9 0 0 -8 9 -11 28 -8 15 2 49 5 75 5 41 1
48 4 45 19 -2 10 -11 16 -23 14 -50 -6 -445 -6 -445 1 0 4 -19 7 -42 7 -63 0
-325 50 -456 86 -31 9 -69 19 -85 21 -15 3 -30 9 -33 14 -6 11 -28 12 -37 2z"/>
<path d="M7225 4611 c-3 -5 -29 -12 -58 -16 -28 -4 -68 -11 -88 -16 -20 -5
-61 -10 -92 -11 -38 -2 -57 -7 -57 -15 0 -17 34 -16 195 2 72 8 133 15 137 15
3 0 4 9 1 19 -6 22 -29 35 -38 22z"/>
<path d="M6740 4569 c0 -5 4 -8 9 -4 5 3 12 2 15 -3 6 -10 156 -16 156 -5 0 4
-15 8 -32 8 -18 0 -59 4 -90 8 -39 5 -58 4 -58 -4z"/>
<path d="M2697 4550 c-7 -28 30 -38 48 -13 21 27 18 33 -14 33 -20 0 -30 -6
-34 -20z"/>
<path d="M2928 4552 c-16 -9 -28 -19 -28 -23 0 -12 47 -47 79 -57 30 -10 32
-10 20 4 -7 8 -14 27 -15 41 -5 43 -24 55 -56 35z m42 -12 c0 -5 -4 -10 -10
-10 -5 0 -10 5 -10 10 0 6 5 10 10 10 6 0 10 -4 10 -10z"/>
<path d="M2640 4540 c0 -5 4 -10 9 -10 6 0 13 5 16 10 3 6 -1 10 -9 10 -9 0
-16 -4 -16 -10z"/>
<path d="M3085 4540 c3 -5 8 -10 11 -10 2 0 4 5 4 10 0 6 -5 10 -11 10 -5 0
-7 -4 -4 -10z"/>
<path d="M3080 4504 c0 -6 7 -19 15 -30 8 -10 14 -14 14 -9 0 6 -6 19 -14 29
-8 11 -15 15 -15 10z"/>
<path d="M2765 4490 c3 -5 8 -10 11 -10 2 0 4 5 4 10 0 6 -5 10 -11 10 -5 0
-7 -4 -4 -10z"/>
<path d="M3120 4450 c0 -5 5 -10 11 -10 5 0 7 5 4 10 -3 6 -8 10 -11 10 -2 0
-4 -4 -4 -10z"/>
<path d="M3755 3659 c18 -58 36 -79 97 -108 35 -16 106 -59 158 -95 52 -37
107 -74 122 -84 46 -31 149 -125 160 -147 9 -16 8 -18 -3 -7 -26 24 -32 11 -7
-15 14 -16 49 -65 78 -110 28 -46 54 -83 56 -83 3 0 0 9 -6 19 -16 30 -13 48
4 31 21 -22 170 -310 205 -397 8 -18 17 -33 22 -33 5 0 15 -13 23 -29 16 -31
76 -60 76 -38 0 7 11 29 25 49 18 26 25 50 25 82 0 52 36 136 58 136 12 0 14
11 9 55 -5 48 -3 57 16 70 12 8 29 15 39 15 10 0 18 4 18 8 0 9 -96 191 -105
201 -4 3 -4 -5 -1 -19 4 -17 -1 -37 -16 -60 -33 -53 -60 -129 -65 -188 -4 -40
-8 -52 -19 -48 -7 3 -16 1 -19 -5 -4 -5 -12 -9 -18 -8 -26 3 -37 -2 -37 -15 0
-8 -7 -17 -16 -20 -17 -7 -86 56 -92 83 -2 8 -20 39 -40 70 -20 30 -41 63 -47
72 -51 87 -128 179 -236 282 -71 67 -135 124 -142 126 -6 2 -18 13 -26 23 -7
11 -20 17 -28 14 -8 -3 -12 -2 -9 3 3 5 -5 12 -19 15 -27 7 -159 98 -214 148
-31 29 -33 29 -26 7z"/>
<path d="M1572 3645 c0 -16 2 -22 5 -12 2 9 2 23 0 30 -3 6 -5 -1 -5 -18z"/>
<path d="M5230 3180 c-8 -5 -11 -12 -7 -16 4 -4 13 -2 19 4 15 15 7 24 -12 12z"/>
<path d="M5241 3134 c0 -11 3 -14 6 -6 3 7 2 16 -1 19 -3 4 -6 -2 -5 -13z"/>
<path d="M5559 3113 c-1 -5 -1 -12 0 -16 1 -4 -6 -10 -14 -13 -8 -4 -18 -24
-21 -45 -5 -32 -11 -39 -29 -39 -29 0 -39 25 -19 45 9 8 11 15 6 15 -5 0 -12
9 -15 19 -3 12 -15 21 -33 23 -30 3 -34 2 -94 -25 -19 -9 -43 -17 -52 -19 -13
-2 4 -43 90 -213 96 -188 132 -240 125 -180 -5 39 -13 65 -21 64 -22 -4 -32 3
-32 21 0 11 5 20 10 20 6 0 10 6 10 13 0 6 12 37 27 67 14 30 28 63 29 72 2 9
15 41 29 72 44 97 45 101 24 114 -10 7 -20 9 -20 5z m-89 -144 c0 -11 -4 -17
-10 -14 -5 3 -10 13 -10 21 0 8 5 14 10 14 6 0 10 -9 10 -21z m-10 -43 c0 -8
-7 -16 -15 -20 -10 -4 -15 1 -15 14 0 11 7 20 15 20 8 0 15 -6 15 -14z m-20
-46 c0 -5 -4 -10 -10 -10 -5 0 -10 5 -10 10 0 6 5 10 10 10 6 0 10 -4 10 -10z"/>
<path d="M4420 2985 c0 -8 4 -15 10 -15 5 0 7 7 4 15 -4 8 -8 15 -10 15 -2 0
-4 -7 -4 -15z"/>
<path d="M4486 2830 c4 -14 11 -41 15 -60 7 -31 8 -29 5 13 -2 27 -9 54 -16
60 -10 9 -11 7 -4 -13z"/>
<path d="M5510 2790 c0 -5 5 -10 10 -10 6 0 10 5 10 10 0 6 -4 10 -10 10 -5 0
-10 -4 -10 -10z"/>
<path d="M6430 2659 c0 -23 21 -79 29 -79 16 0 20 14 8 28 -6 8 -11 18 -11 21
1 3 -5 15 -12 26 -11 15 -14 16 -14 4z"/>
<path d="M3839 2616 c10 -12 6 -16 -21 -21 -41 -9 -99 -38 -158 -79 -70 -48
-185 -142 -216 -177 -16 -17 -41 -43 -57 -57 -15 -14 -24 -29 -20 -33 10 -9
637 -33 658 -25 28 10 15 50 -58 186 -103 190 -121 220 -131 220 -5 0 -3 -6 3
-14z m94 -341 c-3 -9 -8 -14 -10 -11 -3 3 -2 9 2 15 9 16 15 13 8 -4z"/>
<path d="M3719 2616 c-2 -2 -44 -7 -94 -10 -110 -6 -260 -52 -302 -93 -7 -6
-26 -14 -43 -18 -16 -4 -30 -11 -30 -16 0 -5 -22 -20 -48 -33 -27 -13 -54 -32
-62 -41 -15 -19 -71 -50 -83 -47 -4 1 -12 -8 -18 -21 -10 -21 -30 -36 -109
-80 -19 -11 -37 -21 -40 -24 -3 -3 50 -3 117 -1 106 3 124 6 141 23 27 28 61
55 69 55 3 0 20 13 37 29 99 92 157 141 169 141 7 0 44 16 82 36 39 20 113 52
165 70 52 18 86 34 74 34 -11 0 -23 -2 -25 -4z"/>
<path d="M3640 2546 c-140 -72 -217 -119 -255 -156 -43 -41 -101 -92 -150
-129 l-30 -24 34 7 c18 3 44 6 58 6 23 0 90 58 139 122 24 31 154 130 227 172
40 24 55 36 45 36 -2 0 -32 -15 -68 -34z"/>
<path d="M2880 2545 c-6 -7 -23 -15 -39 -18 -18 -4 -31 -14 -35 -29 -5 -14 -9
-18 -12 -11 -4 9 -11 10 -22 4 -9 -5 -29 -9 -44 -9 -31 1 -58 -17 -58 -38 0
-28 -69 -92 -107 -99 -44 -8 -119 -50 -127 -70 -7 -20 -24 -19 -29 3 -4 16 -5
16 -6 0 0 -10 -5 -18 -11 -18 -5 0 -10 -7 -10 -16 0 -9 -7 -14 -17 -13 -10 1
-25 -1 -33 -4 -8 -3 -22 -8 -30 -11 -8 -2 32 -3 90 -1 58 2 142 4 187 4 60 1
86 5 97 17 9 8 29 17 46 19 17 2 45 19 65 40 20 19 40 35 45 35 6 0 10 7 10
16 0 9 10 25 22 36 19 16 20 22 10 39 -10 16 -10 27 0 55 6 19 16 34 21 34 4
0 5 4 2 10 -4 6 1 7 10 3 15 -5 34 10 35 28 0 12 -50 7 -60 -6z"/>
<path d="M5560 2505 c0 -8 5 -15 10 -15 6 0 10 7 10 15 0 8 -4 15 -10 15 -5 0
-10 -7 -10 -15z"/>
<path d="M5657 2356 c-17 -13 -23 -36 -9 -36 8 0 35 40 30 45 -2 2 -11 -2 -21
-9z"/>
<path d="M4055 2220 c-3 -5 -1 -10 4 -10 6 0 11 5 11 10 0 6 -2 10 -4 10 -3 0
-8 -4 -11 -10z"/>
<path d="M4866 1249 c-10 -10 -23 -16 -27 -13 -5 3 -9 -1 -9 -9 0 -21 38 -10
51 15 14 27 8 29 -15 7z"/>
<path d="M4700 1085 c-7 -9 -8 -15 -2 -15 5 0 12 7 16 15 3 8 4 15 2 15 -2 0
-9 -7 -16 -15z"/>
<path d="M4650 1049 c0 -5 5 -7 10 -4 6 3 10 8 10 11 0 2 -4 4 -10 4 -5 0 -10
-5 -10 -11z"/>
<path d="M4000 1041 c0 -6 4 -13 10 -16 6 -3 7 1 4 9 -7 18 -14 21 -14 7z"/>
<path d="M4041 983 c7 -12 15 -20 18 -17 3 2 -3 12 -13 22 -17 16 -18 16 -5
-5z"/>
</g>
</svg>
