<!-- Generator: Adobe Illustrator 18.0.0, SVG Export Plug-In  -->
<svg version="1.1"
   xmlns="http://www.w3.org/2000/svg" xmlns:xlink="http://www.w3.org/1999/xlink" xmlns:a="http://ns.adobe.com/AdobeSVGViewerExtensions/3.0/"
   x="0px" y="0px" width="553.8px" height="572.2px" viewBox="0 0 553.8 572.2" enable-background="new 0 0 553.8 572.2"
   xml:space="preserve">
<defs>
</defs>
<path fill="#38434D" d="M342.4,268.2c0.1-1.9,0.1-3.8,0-5.7c-8.3,1.4-21.8-1.3-21.9-1.3c-7.2,5-22.6,17.8-18.7,33.6
  c0.8,3.2,2.4,5.3,4.5,6.5c10-3.5,29.7-10.8,42.2-18.2c2.3-2.3,4.3-4.6,5.9-6.9C347.3,275.2,341.8,268.2,342.4,268.2z"/>
<path fill="#E9E9E9" d="M405.6,424.6c0,0,72.5,2,68.6,17.9c0,0.1-283.1,104.3-142.8,12.4c0,0-39.6,1.9-43.3-13.6
  c0,0-77.9,9.3-45.7-11.7C273.2,409.4,405.6,424.6,405.6,424.6z"/>
<path fill="#59626A" d="M247.7,431.4c14.6-7.7,37.8-8.2,37.8-8.2s-7-4.6-11.4-15.1c-1.8-4.3-2.8-9.4-2.1-15.7
  c2-17.8,22-18,29.1-17.5c-0.1-2.5-0.3-4.6-0.6-5.9c-1.9-7-51,2.4-30.5,43.8c0.8,1.6,1.7,3.3,2.7,5c0,0-16.9,3.5-22.1,5.4
  c-3.7,1.3-7.8,3.1-10.7,5.3C242.4,428.4,245.4,429.1,247.7,431.4z"/>
<path fill="#C7C7C7" d="M237.7,438.2c2.6,2,7.9,2.6,14,2.5c-0.6-4.5-2.1-7.5-4-9.3C244.4,433.1,241.1,435.3,237.7,438.2z"/>
<path fill="#F7F7F7" d="M236.2,436.3c0.2,0.6,0.6,1.1,1.1,1.6c0.1,0.1,0.2,0.2,0.3,0.3c3.3-2.9,6.7-5.1,10-6.8
  c-2.4-2.3-5.3-2.9-7.8-3C236.9,430.7,235.1,433.3,236.2,436.3z"/>
<path fill="#F7F7F7" d="M365.4,273.2l14.8-5.6c0-13,26.1-43.8,34.8-46.6c-13.7-1.1-23.1,7-36.6-2.6c0,0-27.2,26.6-34.7,41.3l6.3,8
  C353.7,268.2,365.4,273.2,365.4,273.2z"/>
<path fill="#38434D" d="M553.1,267.8c-7.3,4-15.5,0.8-20.3-2c-21.2,76.7-70.5,117.9-110.1,139.4c6.9-54.4,20.7-142.3,41.5-184.5
  c0,0-16.1,2.9-49.1,0.1c-8.7,2.8-34.8,33.7-34.8,46.6l-14.8,5.6c0,0-11.7-4.9-15.5-5.6c0,0-6.6-7.4-8.1-4.5c-4.2,8.3-9,17.9-13.9,28
  c-7.7,15.8-15.9,33.3-23.3,50.3c-4.9,11.2-8.5,22.1-11.3,32.4c-8.7,0.6-20.7,4-22.3,17.5c-0.7,6.2,0.3,11.4,2.1,15.7
  c4.3,10.5,10,14.7,10,14.7s-20.8,1.8-35.5,9.5c1.9,1.8,3.4,4.8,4,9.3c10.1-0.3,29.2-3.9,38.3-5.8c1.4,1.9,3,3.7,5.2,5.1
  c7.5,5.1,25.6,13.8,51.3,17.1c-10.7,2.6-40.5,10-42,19.8c0.6,0.3,1.3,0.5,2.1,0.7c0,0,0.1,0,0.1,0c0,0,7.4,0,19.8-3.1
  c12.4-3.1,57.4-12.1,57.4-12.1s30.2-5.4,33.2-10.7c0.1,0,0.2,0,0.3-0.1c0,0,0.6-6.5,1.8-17.4C529.8,386.5,549.6,303.5,553.1,267.8z"
  />
<path fill="#59626A" d="M368.1,442.8c-7.6-9.1-15-22.1-7.6-33c8.6-12.7,32.3-5.4,44.2-0.6c-15.9-16.3-42-22.3-57.6-10.3
  c-21.5,16.7,6.7,40.4,16.1,47.4c1.8,1.3,2.9,2,2.9,2s-2.3,0-5.9,0.1c-11.4,0.4-58.1,8.4-60.2,22c0,0,0.5,4.6,4.6,6.7
  c4-6.8,12.7-9.6,21.3-12.8c15.2-5.6,53.8-10,53.8-10S373.8,449.6,368.1,442.8z"/>
<path fill="#2D3135" d="M370.4,279.2c-1-1.4-1.9-2.5-2.7-3.5c-1.6-0.6-3.2-1.3-4.9-1.9c-1.9,0.6-3.7,1.6-5.6,2.8
  c-10.1,6.7-18.3,20.7-18.3,20.7c17.3,26.6,33.8,22,33.8,22C390.8,311.9,378.2,289.7,370.4,279.2z"/>
<path fill="#59626A" d="M356.7,271.8c-2.1-0.7-4.2-1.3-6.3-1.8c-3.2-0.8-6.5-1.5-9.6-1.9c-7.1-0.5-13.4,0.1-13.4,0.1s-0.5,0-1.1,0.1
  c-1.6,0.3-3.1,0.7-4.4,1.2c-10.8,3.9-12.9,11.1-12.3,12.9c0.6,1.9-1.2-5.6,22.6-7.4c8.7-0.7,15.2,0.2,22.3,1.2
  c0.9,0.1,1.9,0.2,2.8,0.4c1.8-1.2,3.7-2.2,5.6-2.8C360.8,273.1,358.8,272.4,356.7,271.8z"/>
<path fill="#38434D" d="M401.9,297.1c0,0-53.6,28.4-69.8-2.9c0,0-4.7-19,71.1-35.2L401.9,297.1z"/>
<path fill="#2D3135" d="M348.5,283.1c-12.5,7.4-32.1,14.7-42.2,18.2C315.8,306.6,336.4,295.1,348.5,283.1z"/>
<path fill="#59626A" d="M403.1,258.9c0,0-69.8,13.2-70.5,34.8c0,0,1.6,11.1,11.9,12.4c0,0-10.9-11.5,2.9-20.2
  C360.7,277.7,403.1,258.9,403.1,258.9z"/>
<path fill="#F7F7F7" d="M342.4,262.5c-0.4-6.8-2.1-13.6-3.3-18c-2.6-2.2-5.7-3.2-9.5-2.2c-8.2,2.1-8,10.6-8.7,18.3
  C324.9,261.7,334.1,263.9,342.4,262.5z"/>
<path fill="#2D3135" d="M348.7,261.7c-0.1-0.3-0.2-0.7-0.4-1c-1.9,0.9-3.9,1.4-5.9,1.8c0.1,1.9,0.1,3.9,0,5.7c3,0.3,6.1,0.8,8.8,1.6
  C350.5,267.6,349.7,264.7,348.7,261.7z"/>
<path fill="#C7C7C7" d="M348.3,260.7c-2.2-6.3-5.1-12.8-9.2-16.2c1.2,4.4,2.9,11.3,3.3,18C344.4,262.1,346.5,261.6,348.3,260.7z"/>
<path fill="#F7E313" d="M256.3,524.9L74.8,572.1c-1.8,0.5-3.6-0.3-4.5-1.9L0.5,444.5c-1.4-2.5,0.2-5.5,3-5.9l172.4-23.6
  c1.4-0.2,2.8,0.4,3.7,1.5l78.9,102.2C260.3,520.9,259.1,524.2,256.3,524.9z"/>
<path fill="#0B0C0D" d="M550.7,235.1c-3-7.6-7.1-9.5-7.1-9.5c-0.6,3-1.2,5.8-1.9,8.7C543.9,235,547,235.6,550.7,235.1z"/>
<path fill="#F7F7F7" d="M541.7,234.3c-2.5,11.1-5.5,21.7-9,31.6c4.9,2.8,13,6,20.3,2c0.4-4.2,0.6-7.8,0.7-10.5
  c0.3-10.4-1.2-17.5-3.1-22.3C547,235.6,543.9,235,541.7,234.3z"/>
<path fill="#38434D" d="M439.6,104.4c33.4,0,88.7-49,103.9-43.2c15.2,5.8-26,83.8-55.6,110.5S403.4,104.4,439.6,104.4z"/>
<path fill="#38434D" d="M398.9,103.3c-44.1-11.8-53.9-28.2-83.7-47.9c-26-17.2-9.8,25.9-9.8,25.9s13.3,50.5,62.7,77.8
  C389.5,171,415.7,107.8,398.9,103.3z"/>
<path fill="#C7C7C7" d="M375.9,222.1c-4.9,3.6-18.2,17.7-18.2,17.7c13.8,2.1,26.3,1.7,37.2,0c6.2-8,15.2-19.4,22.5-27.1
  C398.1,211.4,379.4,219.6,375.9,222.1z"/>
<path fill="#2D3135" d="M417.4,212.7c-7.3,7.7-16.3,19-22.5,27.1c29.2-4.6,46.9-18.5,46.9-18.5C434.4,215.7,425.8,213.3,417.4,212.7
  z"/>
<path fill="#F26C8C" d="M462.4,127.1c0,0,25-10.2,45.3-21.9c10-5.8,9.2,0.7,5.3,8.4c-3.8,7.7-17.3,33.9-39.7,47.4L462.4,127.1z"/>
<path fill="#F26C8C" d="M385.3,115.2c-29.8-7.4-51.8-24.2-56-20.4c-3,2.6,0,7.5,5.5,17.2c9.3,16.4,24.8,32,40,36.1
  C374.9,148.1,403.1,119.6,385.3,115.2z"/>
<path fill="#38434D" d="M477.3,174.3c0,0,11.8-75.7-56.9-76c-47-0.2-74.8,42.2-78.3,64.9c-1.2,8-19.9,9.9-46.6,20.4
  c-6.7,5-6.2,13.9,1.2,26.6c-0.9-0.4,8.8,9.5,14.5,13.6c18.9,13.5,60.9,6.8,88.1,4.5c23.9-2,58.1,2.4,61.8-2.9
  C466.2,218.4,469.9,207.6,477.3,174.3z"/>
<path fill="#0B0C0D" d="M324,202.5c4.7-3.2,3.2-8.8-1.2-10.2c-6.4-2.3-11.4-3.5-15.3-1.6c0,0-8.4,2.5,0.4,12.3
  C313,202.7,318.4,206.2,324,202.5z"/>
<circle fill="#59626A" cx="353.7" cy="163.9" r="8"/>
<circle fill="#59626A" cx="423.7" cy="171.9" r="8"/>
<circle fill="#0B0C0D" cx="354.1" cy="162.1" r="7.7"/>
<path fill="#0B0C0D" d="M367.4,151.4c0,0-1.5-0.9-3.2-1.9c-1.8-1-3.8-2.2-5.7-2.9c-1-0.4-1.9-0.7-3-1.1c-0.5-0.2-1-0.2-1.5-0.4
  c-0.5-0.2-1-0.2-1.5-0.3c-1-0.3-1.9-0.4-2.5-0.5c-0.7-0.2-1.1-0.3-1.1-0.3s0.2-0.3,0.7-0.9c0.5-0.5,1.2-1.3,2.3-1.8
  c0.5-0.3,1.1-0.6,1.8-0.8c0.7-0.2,1.4-0.4,2.2-0.4c0.8,0,1.6-0.1,2.5,0.1c0.8,0.2,1.7,0.4,2.5,0.7c3.3,1.3,5.4,4.2,6.1,6.4
  C367.8,149.6,367.4,151.4,367.4,151.4z"/>
<circle fill="#F6F8FB" cx="359.7" cy="158.6" r="2.3"/>
<circle fill="#0B0C0D" cx="424.2" cy="169.8" r="7.7"/>
<circle fill="#F6F8FB" cx="428.9" cy="167.7" r="2.3"/>
<path fill="#0B0C0D" d="M405.5,160.6c0,0,2.1,0.3,5.2,0.7c3,0.4,6.7,0.8,10.4,0.9c0.9,0.1,1.8,0,2.7,0c0.9,0,1.8-0.1,2.7-0.1
  c0.9,0,1.7-0.1,2.6-0.2c0.8,0,1.6-0.1,2.4-0.2c0.7-0.1,1.5-0.1,2.1-0.2c0.6-0.1,1.2-0.1,1.6-0.2c0.9-0.1,1.5-0.1,1.5-0.1
  s-0.3,0.4-1,1.2c-0.7,0.7-1.7,1.7-3.1,2.5c-0.7,0.4-1.5,1-2.3,1.3c-0.9,0.4-1.8,0.8-2.8,1.1c-1,0.2-2.1,0.6-3.2,0.6
  c-1.1,0.1-2.2,0.2-3.3,0.2c-1.1,0-2.2-0.1-3.3-0.4c-1.1-0.1-2.1-0.5-3.1-0.8c-2-0.7-3.7-1.6-5-2.6
  C406.7,162.6,405.5,160.6,405.5,160.6z"/>
<ellipse transform="matrix(0.9649 -0.2626 0.2626 0.9649 -28.2462 63.4871)" fill="#E9E9E9" cx="223.4" cy="137.4" rx="18.3" ry="14.7"/>
<ellipse transform="matrix(0.9649 -0.2626 0.2626 0.9649 -30.4846 73.1846)" fill="#E9E9E9" cx="258.5" cy="150.6" rx="10.7" ry="8.6"/>
<ellipse fill="#E9E9E9" cx="131.8" cy="87.7" rx="108.7" ry="87.7"/>
<g>
  <circle fill="#AFAFAF" cx="101.8" cy="87.7" r="9"/>
  <circle fill="#AFAFAF" cx="131.8" cy="87.7" r="9"/>
  <circle fill="#AFAFAF" cx="161.8" cy="87.7" r="9"/>
</g>
</svg>
