<?xml version="1.0" encoding="UTF-8" standalone="no"?>
<svg width="30px" height="30px" viewBox="0 0 30 30" version="1.1" xmlns="http://www.w3.org/2000/svg" xmlns:xlink="http://www.w3.org/1999/xlink">
    <!-- Generator: Sketch 39.1 (31720) - http://www.bohemiancoding.com/sketch -->
    <title>Group</title>
    <desc>Created with Sketch.</desc>
    <defs></defs>
    <g id="Sprint-06:-Sam-reviewing-parts-for-appointments" stroke="none" stroke-width="1" fill="none" fill-rule="evenodd">
        <polygon id="Shape" fill="#000000" points="0.290575 17 0 17 0 32.6134 12.8848625 17"></polygon>
        <g id="Group" fill="#000000">
            <path d="M14.9919,6.23773333 C19.4722125,6.23773333 23.17225,9.6008 23.684075,13.9208667 L29.9624125,13.9208667 C29.29055,5.7376 22.890525,-0.137866667 14.9919,0.0022 C7.051975,0.0022 0.5317375,6.15706667 0,13.9208667 L0.00295,13.9208667 L0.293525,13.9208667 L6.29825,13.9208667 C6.810075,9.6008 10.512325,6.23773333 14.9919,6.23773333 L14.9919,6.23773333 L14.9919,6.23773333 Z" id="Shape"></path>
            <path d="M23.483475,17.0382667 C22.536525,20.8303333 19.093875,23.6536667 14.9919,23.6536667 C13.919575,23.6536667 12.887075,23.4578667 11.9364375,23.1044 L11.648075,23.4556667 L7.83225,28.0800667 C9.96215,29.2321333 12.4025375,29.8877333 14.9919,29.8877333 C22.5638125,29.8877333 28.9985,24.2894667 29.9093125,17.039 L23.483475,17.039 L23.483475,17.0382667 L23.483475,17.0382667 Z" id="Shape"></path>
        </g>
    </g>
</svg>