<?xml version="1.0" encoding="UTF-8" standalone="no"?>
<svg width="141px" height="14px" viewBox="0 0 141 14" version="1.1" xmlns="http://www.w3.org/2000/svg" xmlns:xlink="http://www.w3.org/1999/xlink">
    <!-- Generator: Sketch 39.1 (31720) - http://www.bohemiancoding.com/sketch -->
    <title>philosophie-logo</title>
    <desc>Created with Sketch.</desc>
    <defs></defs>
    <g id="Sprint-06:-Sam-reviewing-parts-for-appointments" stroke="none" stroke-width="1" fill="none" fill-rule="evenodd">
        <g id="philosophie-logo" fill="#000000">
            <g id="moodboard">
                <g>
                    <g id="Desktop-HD">
                        <g id="philosophie-logo">
                            <g id="Layer_1">
                                <path d="M4.3360875,10.437 L4.3360875,13.6952 L0.6884125,13.6952 L0.6884125,0.9572 L6.7986,0.9572 C10.3953875,0.9572 11.50385,2.3285333 11.50385,4.7544 L11.50385,6.6156 C11.50385,9.0906 10.1734,10.437 6.6267625,10.437 L4.3360875,10.437 L4.3360875,10.437 L4.3360875,10.437 Z M6.6503625,3.8722 L4.336825,3.8722 L4.336825,7.5469333 L6.6503625,7.5469333 C7.5619125,7.5469333 7.9070625,7.1788 7.9070625,6.444 L7.9070625,4.926 C7.906325,4.2154 7.5619125,3.8722 6.6503625,3.8722 L6.6503625,3.8722 L6.6503625,3.8722 Z" id="Shape"></path>
                                <polygon id="Shape" points="22.7463 8.8698667 18.6332625 8.8698667 18.6332625 13.6959333 14.9878 13.6959333 14.9878 0.95793333 18.6332625 0.95793333 18.6332625 5.7356 22.7463 5.7356 22.7463 0.95793333 26.3932375 0.95793333 26.3932375 13.6959333 22.7463 13.6959333"></polygon>
                                <rect id="Rectangle-path" x="30.6161625" y="0.95793333" width="3.6439875" height="12.738"></rect>
                                <polygon id="Shape" points="38.488975 0.95793333 42.1344375 0.95793333 42.1344375 10.5602 47.5034375 10.5602 47.5034375 13.6959333 38.488975 13.6959333"></polygon>
                                <path d="M50.5648,9.7997333 L50.5648,4.8526667 C50.5648,2.649 52.188775,0.713 56.2052,0.713 C60.2208875,0.713 61.8478125,2.6482667 61.8478125,4.8526667 L61.8478125,9.7997333 C61.8478125,12.0063333 60.2208875,13.9408667 56.2052,13.9408667 C52.188775,13.9401333 50.5648,12.0063333 50.5648,9.7997333 M56.2059375,3.8487333 C54.8253375,3.8487333 54.2102625,4.387 54.2102625,5.2941333 L54.2102625,9.3597333 C54.2102625,10.2654 54.8253375,10.8051333 56.2059375,10.8051333 C57.5850625,10.8051333 58.2001375,10.2654 58.2001375,9.3597333 L58.2001375,5.2941333 C58.2001375,4.3862667 57.584325,3.8487333 56.2059375,3.8487333" id="Shape"></path>
                                <path d="M65.233675,13.0579333 L65.826625,10.3644 C66.935825,10.6841333 68.560537,10.9767333 69.9168,10.9767333 C71.27085,10.9767333 71.540775,10.7068667 71.540775,9.9713333 C71.540775,9.1639333 71.395487,8.9681333 69.078262,8.6 C65.7278,8.0617333 65.383387,6.763 65.383387,4.4361333 C65.383387,1.6443333 67.083325,0.713 70.457387,0.713 C71.690487,0.713 73.610937,0.90806667 74.844037,1.252 L74.4244,4.1178667 C72.994387,3.8245333 71.641812,3.6778667 70.4832,3.6778667 C69.300987,3.6778667 69.029587,3.8487333 69.029587,4.5586 C69.029587,5.4166 69.152012,5.5390667 71.346075,5.9306667 C74.942862,6.5672 75.189187,7.401 75.189187,9.7997333 C75.189187,12.5431333 74.201675,13.9408667 69.867387,13.9408667 C68.386487,13.9408667 66.613537,13.6468 65.233675,13.0579333" id="Shape"></path>
                                <path d="M78.653963,9.7997333 L78.653963,4.8526667 C78.653963,2.649 80.279413,0.713 84.2951,0.713 C88.312263,0.713 89.936975,2.6482667 89.936975,4.8526667 L89.936975,9.7997333 C89.936975,12.0063333 88.312263,13.9408667 84.2951,13.9408667 C80.279413,13.9401333 78.653963,12.0063333 78.653963,9.7997333 M84.2951,3.8487333 C82.915975,3.8487333 82.302375,4.387 82.302375,5.2941333 L82.302375,9.3597333 C82.302375,10.2654 82.916713,10.8051333 84.2951,10.8051333 C85.676438,10.8051333 86.290775,10.2654 86.290775,9.3597333 L86.290775,5.2941333 C86.290775,4.3862667 85.676438,3.8487333 84.2951,3.8487333" id="Shape"></path>
                                <path d="M97.314187,10.437 L97.314187,13.6952 L93.666512,13.6952 L93.666512,0.9572 L99.777437,0.9572 C103.373487,0.9572 104.48195,2.3285333 104.48195,4.7544 L104.48195,6.6156 C104.48195,9.0906 103.1515,10.437 99.604862,10.437 L97.314187,10.437 L97.314187,10.437 L97.314187,10.437 Z M99.6292,3.8722 L97.314188,3.8722 L97.314188,7.5469333 L99.6292,7.5469333 C100.539275,7.5469333 100.885163,7.1788 100.885163,6.444 L100.885163,4.926 C100.885163,4.2154 100.540013,3.8722 99.6292,3.8722 L99.6292,3.8722 L99.6292,3.8722 Z" id="Shape"></path>
                                <polygon id="Shape" points="115.725138 8.8698667 111.610625 8.8698667 111.610625 13.6959333 107.967375 13.6959333 107.967375 0.95793333 111.610625 0.95793333 111.610625 5.7356 115.725138 5.7356 115.725138 0.95793333 119.372075 0.95793333 119.372075 13.6959333 115.725138 13.6959333"></polygon>
                                <rect id="Rectangle-path" x="123.595" y="0.95793333" width="3.6454625" height="12.738"></rect>
                                <polygon id="Shape" points="131.467075 0.95793333 140.729338 0.95793333 140.729338 3.848 135.114013 3.848 135.114013 5.784 140.2861 5.784 140.2861 8.6733333 135.114013 8.6733333 135.114013 10.8058667 140.729338 10.8058667 140.729338 13.6959333 131.467075 13.6959333"></polygon>
                            </g>
                        </g>
                    </g>
                </g>
            </g>
        </g>
    </g>
</svg>