<?xml version="1.0" encoding="UTF-8" standalone="no"?>
<svg width="177px" height="33px" viewBox="0 0 177 33" version="1.1" xmlns="http://www.w3.org/2000/svg" xmlns:xlink="http://www.w3.org/1999/xlink">
    <!-- Generator: Sketch 39.1 (31720) - http://www.bohemiancoding.com/sketch -->
    <title>philosophie-logo</title>
    <desc>Created with Sketch.</desc>
    <defs></defs>
    <g id="moodboard" stroke="none" stroke-width="1" fill="none" fill-rule="evenodd">
        <g id="Desktop-HD" transform="translate(-103.000000, -70.000000)" fill="#000000">
            <g id="philosophie-logo" transform="translate(103.000000, 70.000000)">
                <g id="Layer_1">
                    <path d="M40.3360875,19.437 L40.3360875,22.6952 L36.6884125,22.6952 L36.6884125,9.9572 L42.7986,9.9572 C46.3953875,9.9572 47.50385,11.3285333 47.50385,13.7544 L47.50385,15.6156 C47.50385,18.0906 46.1734,19.437 42.6267625,19.437 L40.3360875,19.437 L40.3360875,19.437 Z M42.6503625,12.8722 L40.336825,12.8722 L40.336825,16.5469333 L42.6503625,16.5469333 C43.5619125,16.5469333 43.9070625,16.1788 43.9070625,15.444 L43.9070625,13.926 C43.906325,13.2154 43.5619125,12.8722 42.6503625,12.8722 L42.6503625,12.8722 Z" id="Shape"></path>
                    <polygon id="Shape" points="58.7463 17.8698667 54.6332625 17.8698667 54.6332625 22.6959333 50.9878 22.6959333 50.9878 9.95793333 54.6332625 9.95793333 54.6332625 14.7356 58.7463 14.7356 58.7463 9.95793333 62.3932375 9.95793333 62.3932375 22.6959333 58.7463 22.6959333"></polygon>
                    <rect id="Rectangle-path" x="66.6161625" y="9.95793333" width="3.6439875" height="12.738"></rect>
                    <polygon id="Shape" points="74.488975 9.95793333 78.1344375 9.95793333 78.1344375 19.5602 83.5034375 19.5602 83.5034375 22.6959333 74.488975 22.6959333"></polygon>
                    <path d="M86.5648,18.7997333 L86.5648,13.8526667 C86.5648,11.649 88.188775,9.713 92.2052,9.713 C96.2208875,9.713 97.8478125,11.6482667 97.8478125,13.8526667 L97.8478125,18.7997333 C97.8478125,21.0063333 96.2208875,22.9408667 92.2052,22.9408667 C88.188775,22.9401333 86.5648,21.0063333 86.5648,18.7997333 M92.2059375,12.8487333 C90.8253375,12.8487333 90.2102625,13.387 90.2102625,14.2941333 L90.2102625,18.3597333 C90.2102625,19.2654 90.8253375,19.8051333 92.2059375,19.8051333 C93.5850625,19.8051333 94.2001375,19.2654 94.2001375,18.3597333 L94.2001375,14.2941333 C94.2001375,13.3862667 93.584325,12.8487333 92.2059375,12.8487333" id="Shape"></path>
                    <path d="M101.233675,22.0579333 L101.826625,19.3644 C102.935825,19.6841333 104.560537,19.9767333 105.9168,19.9767333 C107.27085,19.9767333 107.540775,19.7068667 107.540775,18.9713333 C107.540775,18.1639333 107.395487,17.9681333 105.078262,17.6 C101.7278,17.0617333 101.383387,15.763 101.383387,13.4361333 C101.383387,10.6443333 103.083325,9.713 106.457387,9.713 C107.690487,9.713 109.610937,9.90806667 110.844037,10.252 L110.4244,13.1178667 C108.994387,12.8245333 107.641812,12.6778667 106.4832,12.6778667 C105.300987,12.6778667 105.029587,12.8487333 105.029587,13.5586 C105.029587,14.4166 105.152012,14.5390667 107.346075,14.9306667 C110.942862,15.5672 111.189187,16.401 111.189187,18.7997333 C111.189187,21.5431333 110.201675,22.9408667 105.867387,22.9408667 C104.386487,22.9408667 102.613537,22.6468 101.233675,22.0579333" id="Shape"></path>
                    <path d="M114.653963,18.7997333 L114.653963,13.8526667 C114.653963,11.649 116.279413,9.713 120.2951,9.713 C124.312263,9.713 125.936975,11.6482667 125.936975,13.8526667 L125.936975,18.7997333 C125.936975,21.0063333 124.312263,22.9408667 120.2951,22.9408667 C116.279413,22.9401333 114.653963,21.0063333 114.653963,18.7997333 M120.2951,12.8487333 C118.915975,12.8487333 118.302375,13.387 118.302375,14.2941333 L118.302375,18.3597333 C118.302375,19.2654 118.916713,19.8051333 120.2951,19.8051333 C121.676438,19.8051333 122.290775,19.2654 122.290775,18.3597333 L122.290775,14.2941333 C122.290775,13.3862667 121.676438,12.8487333 120.2951,12.8487333" id="Shape"></path>
                    <path d="M133.314187,19.437 L133.314187,22.6952 L129.666512,22.6952 L129.666512,9.9572 L135.777437,9.9572 C139.373487,9.9572 140.48195,11.3285333 140.48195,13.7544 L140.48195,15.6156 C140.48195,18.0906 139.1515,19.437 135.604862,19.437 L133.314187,19.437 L133.314187,19.437 Z M135.6292,12.8722 L133.314188,12.8722 L133.314188,16.5469333 L135.6292,16.5469333 C136.539275,16.5469333 136.885163,16.1788 136.885163,15.444 L136.885163,13.926 C136.885163,13.2154 136.540013,12.8722 135.6292,12.8722 L135.6292,12.8722 Z" id="Shape"></path>
                    <polygon id="Shape" points="151.725138 17.8698667 147.610625 17.8698667 147.610625 22.6959333 143.967375 22.6959333 143.967375 9.95793333 147.610625 9.95793333 147.610625 14.7356 151.725138 14.7356 151.725138 9.95793333 155.372075 9.95793333 155.372075 22.6959333 151.725138 22.6959333"></polygon>
                    <rect id="Rectangle-path" x="159.595" y="9.95793333" width="3.6454625" height="12.738"></rect>
                    <polygon id="Shape" points="167.467075 9.95793333 176.729338 9.95793333 176.729338 12.848 171.114013 12.848 171.114013 14.784 176.2861 14.784 176.2861 17.6733333 171.114013 17.6733333 171.114013 19.8058667 176.729338 19.8058667 176.729338 22.6959333 167.467075 22.6959333"></polygon>
                    <polygon id="Shape" points="0.293525 17.0375333 0.00295 17.0375333 0.00295 32.6509333 12.8878125 17.0375333"></polygon>
                    <g id="Group">
                        <path d="M14.9919,6.23773333 C19.4722125,6.23773333 23.17225,9.6008 23.684075,13.9208667 L29.9624125,13.9208667 C29.29055,5.7376 22.890525,-0.137866667 14.9919,0.0022 C7.051975,0.0022 0.5317375,6.15706667 0,13.9208667 L0.00295,13.9208667 L0.293525,13.9208667 L6.29825,13.9208667 C6.810075,9.6008 10.512325,6.23773333 14.9919,6.23773333 L14.9919,6.23773333 Z" id="Shape"></path>
                        <path d="M23.483475,17.0382667 C22.536525,20.8303333 19.093875,23.6536667 14.9919,23.6536667 C13.919575,23.6536667 12.887075,23.4578667 11.9364375,23.1044 L11.648075,23.4556667 L7.83225,28.0800667 C9.96215,29.2321333 12.4025375,29.8877333 14.9919,29.8877333 C22.5638125,29.8877333 28.9985,24.2894667 29.9093125,17.039 L23.483475,17.039 L23.483475,17.0382667 Z" id="Shape"></path>
                    </g>
                </g>
            </g>
        </g>
    </g>
</svg>